<svg xmlns="http://www.w3.org/2000/svg" width="1440" height="1221" viewBox="0 0 1440 1221">
  <g fill="none" fill-rule="evenodd">
    <polygon fill="#FFF" points="0 220 526 0 1440 138.438 1440 1220.558 0 1220.558"/>
    <path fill="#E6EAF3" fill-rule="nonzero" d="M1055.89921,334 L1384,260.132731 L1379.45338,240.228502 C1378.18943,234.564081 1372.43145,231.008368 1366.77884,232.245661 L1059.28771,301.004019 C1053.58253,302.258938 1050.00123,307.923582 1051.24743,313.588004 C1052.80983,320.350507 1054.33708,327.235266 1055.89966,333.997769 L1055.89921,334 Z M1052.72245,282.728781 L1364.3301,212.675533 C1379.19291,209.340523 1394.0031,218.678364 1397.34068,233.527945 L1430,377.723501 L1410.48185,377.723501 L1395.67166,312.410868 L1067.31991,386.818291 L1087.64626,476.373213 L1089.47336,484.306889 C1090.17609,487.48391 1093.37352,489.555266 1096.6059,488.800362 L1099.03031,488.238678 L1099.03031,507.33594 L1098.67895,507.441258 C1086.34597,510.214584 1074.06561,502.3861 1071.21961,490.116672 L1031.72637,315.765417 C1030.0574,308.340851 1031.2696,301.372372 1035.31032,294.913005 C1039.35103,288.453637 1045.27133,284.399176 1052.70296,282.731648 L1052.72245,282.728781 Z M1133.61821,383 C1118.39392,383 1106,395.447851 1106,410.673694 L1106,590.378967 C1106,605.60481 1118.39392,618 1133.61821,618 L1453.32913,618 C1468.55342,618 1481,605.552149 1481,590.378967 L1481,410.673694 C1481,395.447851 1468.55342,383 1453.32913,383 L1133.61821,383 Z M1387.27027,574 C1384.91728,574 1383,572.083758 1383,569.745589 L1383,561.254411 C1383,558.933839 1384.89983,557 1387.27027,557 L1442.78203,557 C1445.08272,557 1447,558.916242 1447,561.254411 L1447,569.745589 C1447,572.066161 1445.10017,574 1442.78203,574 L1387.27027,574 Z M1308.21789,574 C1305.91724,574 1304,572.079793 1304,569.736786 L1304,561.263214 C1304,558.884985 1305.89979,557 1308.21789,557 L1363.78211,557 C1366.08276,557 1368,558.920207 1368,561.263214 L1368,569.736786 C1368,572.062159 1366.10021,574 1363.78211,574 L1308.21789,574 Z M1230.21789,574 C1227.91724,574 1226,572.079793 1226,569.736786 L1226,561.263214 C1226,558.884985 1227.89979,557 1230.21789,557 L1285.78211,557 C1288.08276,557 1290,558.920207 1290,561.263214 L1290,569.736786 C1290,572.062159 1288.10021,574 1285.78211,574 L1230.21789,574 Z M1207.78211,557 C1210.08276,557 1212,558.920207 1212,561.263214 L1212,569.736786 C1212,572.062159 1210.10021,574 1207.78211,574 L1152.21789,574 C1149.91724,574 1148,572.079793 1148,569.736786 L1148,561.263214 C1148,558.884985 1149.89979,557 1152.21789,557 L1207.78211,557 Z M1442.71312,423 C1445.10455,423 1447,424.877201 1447,427.245608 L1447,427.245608 L1447,463.754392 C1447,466.14036 1444.9983,468 1442.71312,468 L1442.71312,468 L1360.28688,468 C1357.93087,468 1356,466.070162 1356,463.754392 L1356,463.754392 L1356,427.245608 C1356,424.912277 1357.9486,423 1360.28688,423 L1360.28688,423 Z"/>
  </g>
</svg>
