<svg xmlns="http://www.w3.org/2000/svg" width="1440" height="1399" viewBox="0 0 1440 1399">
  <g fill="none" fill-rule="evenodd" transform="translate(-195 .596)">
    <polygon fill="#242C4C" points="195 290.404 1303.95 0 1635 208.841 1635 1398.404 195 1398.404"/>
    <path fill="#141D35" fill-rule="nonzero" d="M255.998,468.403687 C210.031177,468.403687 172.682775,505.775728 172.682775,551.742236 C172.682775,595.699864 206.884424,631.731699 250.059975,634.789313 L250.059975,756.059419 L158.59497,706.431204 C163.729675,695.603822 166.69903,683.548251 166.69903,670.778284 C166.69903,624.833494 129.327197,587.462595 83.3838059,587.462595 C37.4169827,587.462595 0,624.834637 0,670.778284 C0,716.745364 37.4164111,754.139695 83.3838059,754.139695 C112.338961,754.139695 137.833603,739.293408 152.794109,716.835092 L250.065691,769.611221 L250.065691,825.557552 L154.782976,825.557552 L154.782976,873.198604 L173.312583,873.198604 L185.211492,980.403687 L326.838229,980.403687 L338.737138,873.198604 L357.199879,873.198604 L357.199879,825.557552 L261.985746,825.557552 L261.985746,739.807202 L358.851553,686.428695 C373.742335,709.24478 399.460438,724.403115 428.661915,724.403115 C474.628738,724.403115 512,686.986495 512,641.041704 C512,595.074625 474.628167,557.703155 428.661915,557.703155 C382.717381,557.703155 345.30097,595.075196 345.30097,641.041704 C345.30097,653.54363 348.136191,665.375738 353.114701,676.024807 L261.986889,726.210822 L261.986889,634.791027 C305.163012,631.71021 339.364089,595.677575 339.364089,551.743951 C339.364089,505.776871 301.969967,468.403687 256.003143,468.403687 L255.998,468.403687 Z M255.97696,479.403687 C295.802176,479.403687 328,511.573323 328,551.415205 C328,591.23405 295.802752,623.403687 255.97696,623.403687 C216.151168,623.403687 184,591.23405 184,551.415205 C184,511.573899 216.15232,479.403687 255.97696,479.403687 Z M256.888685,486.406376 C253.637955,486.450945 251.033142,489.147219 251.055372,492.400669 L251.055372,504.544988 C238.431157,506.840138 228.255633,516.332776 228.255633,528.722389 C228.255633,543.005897 241.748518,553.478797 256.978174,553.478797 C269.825256,553.478797 279.10988,561.812507 279.10988,570.703548 C279.10988,579.438285 270.114813,587.571767 257.623976,587.839308 C257.379056,587.817027 257.134141,587.794745 256.889198,587.817027 C256.688811,587.817027 256.488418,587.817027 256.288026,587.839308 C243.819419,587.549628 234.891041,579.438285 234.891041,570.703548 C234.935569,568.542054 233.822303,566.536578 231.952041,565.444679 C230.104008,564.35278 227.810696,564.35278 225.94032,565.444679 C224.092287,566.536578 222.956746,568.542054 223.001263,570.703548 C223.001263,585.544386 235.536559,596.931147 251.055771,599.292812 L251.055771,611.325894 C251.011237,613.487387 252.146795,615.492863 253.994771,616.584762 C255.842804,617.676661 258.158402,617.676661 260.006492,616.584762 C261.876754,615.492863 262.990066,613.487387 262.945492,611.325894 L262.945492,599.270565 C278.442474,596.908558 291,585.521568 291,570.703548 C291,554.013309 275.102313,541.579201 256.978231,541.579201 C247.047805,541.579201 240.145754,535.228376 240.145754,528.721819 C240.145754,522.237508 247.003345,515.886684 256.889312,515.842189 L257.17876,515.842189 C266.998037,515.931327 273.855629,522.282004 273.855629,528.721819 C273.811095,530.883312 274.924366,532.888788 276.772399,533.980687 C278.642662,535.072586 280.93603,535.072586 282.80635,533.980687 C284.654383,532.888788 285.767637,530.883312 285.72312,528.721819 C285.72312,516.354453 275.570397,506.862158 262.945612,504.544418 L262.945612,492.400098 C262.967876,490.795707 262.322153,489.258172 261.186669,488.12172 C260.051128,486.985269 258.492538,486.361367 256.889431,486.405919 L256.888685,486.406376 Z M429.02304,569.403687 C468.87072,569.403687 501,601.573323 501,641.415205 C501,681.23405 468.870144,713.403687 429.02304,713.403687 C389.197824,713.403687 357,681.23405 357,641.415205 C357,601.573899 389.197248,569.403687 429.02304,569.403687 Z M428.910867,576.403687 C425.635712,576.427034 423.00644,579.123325 423.051499,582.399121 L423.051499,594.543594 C410.419037,596.861079 400.236867,606.353779 400.236867,618.721301 C400.236867,633.00499 413.76081,643.478022 429.000414,643.478022 C441.855889,643.478022 451.124334,651.767342 451.124334,660.658495 C451.124334,669.393343 442.145635,677.594242 429.624394,677.861216 C429.37932,677.838934 429.156518,677.816652 428.911437,677.816652 C428.710919,677.816652 428.53268,677.816652 428.332174,677.838934 L428.309895,677.838934 C415.833143,677.526968 406.854445,669.393309 406.854445,660.658461 C407.054962,658.407835 405.985549,656.246313 404.069462,655.065295 C402.153375,653.884277 399.724872,653.884277 397.808557,655.065295 C395.914771,656.246313 394.823034,658.407835 395.023575,660.658461 C395.023575,675.47724 407.522571,686.886393 423.051921,689.270335 L423.051921,701.325817 C423.007358,703.487338 424.121357,705.492839 425.970597,706.584752 C427.842081,707.676665 430.136948,707.676665 432.008489,706.584752 C433.857729,705.492839 434.971711,703.487338 434.927165,701.325817 L434.927165,689.292583 C450.456515,686.930546 463,675.476669 463,660.658461 C463,643.968011 447.15923,631.578241 429.001064,631.578241 C419.064151,631.578241 412.135348,625.227336 412.135348,618.720696 C412.135348,612.236304 419.041907,605.885399 428.934332,605.840903 L429.157128,605.840903 C439.027308,605.907755 445.844891,612.258552 445.844891,618.720696 C445.800334,620.882217 446.914327,622.887718 448.785868,623.979631 C450.635108,625.071544 452.952219,625.071544 454.801516,623.979631 C456.650813,622.887718 457.787039,620.882217 457.720192,618.720696 C457.720192,606.330927 447.560836,596.838511 434.927804,594.54299 L434.927804,582.398517 C434.950083,580.794104 434.326239,579.25655 433.189956,578.142389 C432.053674,577.005923 430.516367,576.382014 428.912213,576.403687 L428.910867,576.403687 Z M83.0345655,599.403687 C122.866155,599.403687 155,631.556007 155,671.380647 C155,711.228327 122.865002,743.403687 83.0345655,743.403687 C43.1805089,743.403687 11,711.228903 11,671.380647 C11,631.555431 43.1799328,599.403687 83.0345655,599.403687 Z M82.9082171,605.403687 C81.3485022,605.4271 79.833393,606.073221 78.7192784,607.209493 C77.6274665,608.345765 77.0258606,609.883057 77.0481634,611.464895 L77.0481634,623.562808 C64.4148379,625.879897 54.276463,635.348735 54.276463,647.736391 C54.276463,662.017645 67.7790854,672.466646 83.0197313,672.466646 C95.876085,672.466646 105.122917,680.821285 105.122917,689.710922 C105.122917,698.467094 96.1436049,706.576478 83.5992625,706.843977 C83.3764453,706.821693 83.1536281,706.821693 82.9085594,706.821693 C82.7303079,706.821693 82.5520564,706.821693 82.3738049,706.843977 C69.8739541,706.576614 60.8501502,698.444279 60.8501502,689.710922 C61.0284017,687.48298 59.9365899,685.344129 58.0426748,684.185556 C56.1264569,683.004739 53.742336,683.004739 51.8264033,684.185556 C49.9324883,685.344072 48.8406764,687.482923 49.0189279,689.710922 C49.0189279,704.527173 61.5410245,715.912136 77.0491901,718.273428 L77.0491901,730.326853 C77.0046301,732.488006 78.1186991,734.493165 79.9680656,735.584891 C81.8396778,736.676618 84.1347015,736.676618 86.0063708,735.584891 C87.8557372,734.493165 88.9697948,732.488006 88.9252462,730.326853 L88.9252462,718.273428 C104.455658,715.911794 117,704.526602 117,689.710922 C117,673.023318 101.158148,660.613417 83.0209861,660.613417 C73.061148,660.613417 66.1096247,654.241351 66.1096247,647.735821 C66.1096247,641.230291 73.0617184,634.880469 83.0209861,634.880469 C92.9585785,634.880469 99.8433645,641.230291 99.8433645,647.735821 C99.9324902,650.966399 102.561686,653.550645 105.792687,653.550645 C109.023516,653.550645 111.674701,650.966171 111.742009,647.735821 C111.742009,635.348164 101.581958,625.857368 88.9258166,623.539994 L88.9258166,611.464324 C88.9703823,609.860186 88.3465135,608.300592 87.2101531,607.16432 C86.0737926,606.028049 84.5363806,605.381944 82.9098142,605.403687 L82.9082171,605.403687 Z M167,837.403687 L345,837.403687 L345,861.403687 L167,861.403687 L167,837.403687 Z M186,873.403687 L327,873.403687 L316.432688,968.403687 L196.521751,968.403687 L186,873.403687 Z"/>
  </g>
</svg>
