<svg xmlns="http://www.w3.org/2000/svg" xmlns:xlink="http://www.w3.org/1999/xlink" width="1440" height="934"><defs><path id="a" d="M0 290.404L1108.95 0 1440 208.841v724.563H0z"/></defs><g fill="none" fill-rule="evenodd" transform="translate(0 .596)"><mask id="b" fill="#fff"><use xlink:href="#a"/></mask><use fill="#F2F4F9" xlink:href="#a"/><path fill="#E6EAF3" fill-rule="nonzero" d="M.89 410.404l456.768.006c1.95 0 3.814.776 5.191 2.156A7.362 7.362 0 01465 417.77v318.778a7.362 7.362 0 01-2.151 5.203 7.329 7.329 0 01-5.191 2.156h-113.29l-25.41 109.924a7.296 7.296 0 01-5.277 5.461c-2.639.69-5.42-.144-7.285-2.127h.029l-102.79-113.257h-22.916v111.24a7.362 7.362 0 01-2.15 5.204 7.329 7.329 0 01-5.192 2.155H50.682l-62.78 68.528a7.308 7.308 0 01-7.257 2.127 7.386 7.386 0 01-5.306-5.433l.029-.028-14.684-65.194h-67.342a7.329 7.329 0 01-5.191-2.156 7.362 7.362 0 01-2.151-5.202v-195.44c0-4.053 3.298-7.358 7.342-7.358H-6.452V417.762a7.346 7.346 0 017.342-7.358zm-7.34 256.665h-93.385v180.663h66.079a7.33 7.33 0 017.342 5.749l13.222 57.23 54.837-60.479c1.405-1.552 3.355-2.414 5.449-2.443h118.937V743.818H.891a7.329 7.329 0 01-5.19-2.156 7.362 7.362 0 01-2.152-5.203v-69.39zm456.762-241.946H8.234v303.98h198.554c2.065 0 4.044.891 5.42 2.443l95.449 105.296 23.431-101.933c.746-3.42 3.843-5.806 7.342-5.72h111.882V425.123zM-20.196 750.435c7.146 0 12.939 5.8 12.939 12.953 0 7.154-5.793 12.954-12.939 12.954-7.145 0-12.938-5.8-12.938-12.954 0-7.154 5.793-12.953 12.938-12.953zm53.192 0c7.146 0 12.939 5.8 12.939 12.953 0 7.154-5.793 12.954-12.939 12.954-7.145 0-12.938-5.8-12.938-12.954 0-7.154 5.793-12.953 12.938-12.953zm53.192 0c7.146 0 12.939 5.8 12.939 12.953 0 7.154-5.793 12.954-12.939 12.954s-12.938-5.8-12.938-12.954c0-7.154 5.792-12.953 12.938-12.953zm54.54-199.161c12.058 0 21.833 9.786 21.833 21.859 0 12.072-9.775 21.859-21.833 21.859-12.059 0-21.834-9.787-21.834-21.86 0-12.072 9.775-21.858 21.834-21.858zm88.952 0c12.059 0 21.834 9.786 21.834 21.859 0 12.072-9.775 21.859-21.834 21.859-12.058 0-21.834-9.787-21.834-21.86 0-12.072 9.776-21.858 21.834-21.858zm88.953 0c12.058 0 21.833 9.786 21.833 21.859 0 12.072-9.775 21.859-21.833 21.859-12.059 0-21.834-9.787-21.834-21.86 0-12.072 9.775-21.858 21.834-21.858z" mask="url(#b)" transform="matrix(-1 0 0 1 351 0)"/></g></svg>