<svg xmlns="http://www.w3.org/2000/svg" width="1440" height="1399"><g fill="none" fill-rule="evenodd"><path fill="#242C4C" d="M0 291L1108.95.596 1440 209.437V1399H0z"/><path fill="#141D35" fill-rule="nonzero" d="M60.998 469c-45.967 0-83.315 37.372-83.315 83.338 0 43.958 34.201 79.99 77.377 83.047v121.27l-91.465-49.628c5.135-10.827 8.104-22.883 8.104-35.653 0-45.945-37.372-83.315-83.315-83.315-45.967 0-83.384 37.372-83.384 83.315 0 45.967 37.416 83.362 83.384 83.362 28.955 0 54.45-14.847 69.41-37.305l97.272 52.776v55.947h-95.283v47.64h18.53L-9.79 981h141.627l11.9-107.205H162.2v-47.641H66.986v-85.75l96.866-53.38C178.742 709.842 204.46 725 233.662 725 279.629 725 317 687.582 317 641.638c0-45.967-37.372-83.339-83.338-83.339-45.945 0-83.361 37.372-83.361 83.339 0 12.502 2.835 24.334 7.814 34.983l-91.128 50.186v-91.42c43.176-3.08 77.377-39.113 77.377-83.047 0-45.967-37.394-83.34-83.36-83.34h-.006zm-.021 11C100.802 480 133 512.17 133 552.01c0 39.821-32.197 71.99-72.023 71.99C21.151 624-11 591.83-11 552.01-11 512.17 21.152 480 60.977 480zm.912 7.002c-3.251.045-5.856 2.741-5.834 5.995v12.144c-12.624 2.295-22.8 11.788-22.8 24.177 0 14.284 13.494 24.757 28.723 24.757 12.847 0 22.132 8.334 22.132 17.225 0 8.734-8.995 16.868-21.486 17.135-.245-.022-.49-.044-.735-.022-.2 0-.4 0-.601.022-12.469-.29-21.397-8.4-21.397-17.135a5.927 5.927 0 00-2.939-5.26 5.926 5.926 0 00-6.012 0 5.973 5.973 0 00-2.939 5.26c0 14.84 12.536 26.227 28.055 28.589v12.033a5.973 5.973 0 002.939 5.259 5.926 5.926 0 006.011 0 5.927 5.927 0 002.94-5.26v-12.054C83.441 597.505 96 586.117 96 571.3c0-16.69-15.898-29.125-34.022-29.125-9.93 0-16.832-6.35-16.832-12.857 0-6.484 6.857-12.835 16.743-12.88h.29c9.819.09 16.677 6.44 16.677 12.88a5.953 5.953 0 002.916 5.259 5.967 5.967 0 006.034 0 5.953 5.953 0 002.917-5.26c0-12.367-10.153-21.859-22.777-24.177v-12.144a5.946 5.946 0 00-1.76-4.278 5.857 5.857 0 00-4.297-1.716zM234.023 570C273.871 570 306 602.17 306 642.01c0 39.82-32.13 71.989-71.977 71.989C194.198 714 162 681.83 162 642.01c0-39.84 32.197-72.01 72.023-72.01zm-.112 7c-3.275.023-5.905 2.72-5.86 5.995v12.145c-12.632 2.317-22.814 11.81-22.814 24.177 0 14.284 13.524 24.757 28.763 24.757 12.856 0 22.124 8.29 22.124 17.18 0 8.735-8.978 16.936-21.5 17.203-.245-.022-.467-.044-.713-.044-.2 0-.378 0-.579.022h-.022c-12.477-.312-21.456-8.446-21.456-17.18a5.932 5.932 0 00-2.785-5.594 5.975 5.975 0 00-6.26 0 5.975 5.975 0 00-2.785 5.593c0 14.82 12.499 26.228 28.028 28.612v12.056a5.952 5.952 0 002.919 5.259 5.974 5.974 0 006.037 0 5.952 5.952 0 002.92-5.26V689.89C255.456 687.527 268 676.073 268 661.254c0-16.69-15.84-29.08-33.999-29.08-9.937 0-16.866-6.35-16.866-12.857 0-6.485 6.907-12.836 16.8-12.88h.222c9.87.067 16.688 6.418 16.688 12.88a5.926 5.926 0 002.94 5.259 5.933 5.933 0 006.017 0 5.906 5.906 0 002.918-5.26c0-12.39-10.16-21.881-22.792-24.177v-12.144a5.836 5.836 0 00-1.738-4.257 5.924 5.924 0 00-4.278-1.738h-.001zm-345.876 23C-72.134 600-40 632.152-40 671.977-40 711.824-72.135 744-111.965 744-151.82 744-184 711.825-184 671.977-184 632.15-151.82 600-111.965 600zm-.127 6a6.013 6.013 0 00-4.189 1.805 6.031 6.031 0 00-1.67 4.256v12.098c-12.634 2.317-22.773 11.786-22.773 24.173 0 14.282 13.503 24.73 28.744 24.73 12.856 0 22.103 8.355 22.103 17.245 0 8.756-8.98 16.865-21.524 17.133-.223-.022-.445-.022-.69-.022-.179 0-.357 0-.535.022-12.5-.267-21.524-8.4-21.524-17.133a5.928 5.928 0 00-2.807-5.525 5.897 5.897 0 00-6.217 0 5.928 5.928 0 00-2.807 5.525c0 14.816 12.522 26.201 28.03 28.562v12.054a5.95 5.95 0 002.92 5.258 5.976 5.976 0 006.037 0 5.95 5.95 0 002.92-5.258v-12.054C-90.545 716.508-78 705.123-78 690.307c0-16.688-15.842-29.098-33.979-29.098-9.96 0-16.911-6.372-16.911-12.877 0-6.506 6.952-12.856 16.911-12.856 9.938 0 16.822 6.35 16.822 12.856.09 3.23 2.719 5.815 5.95 5.815 3.23 0 5.882-2.585 5.949-5.815 0-12.388-10.16-21.879-22.816-24.196V612.06a5.863 5.863 0 00-1.716-4.3 5.96 5.96 0 00-4.3-1.76h-.002zM-28 838h178v24H-28v-24zm19 36h141l-10.567 95H1.522L-9 874z"/></g></svg>