<svg xmlns="http://www.w3.org/2000/svg" width="1440" height="1221"><g fill="none" fill-rule="evenodd"><path fill="#FFF" d="M0 220L526 0l914 138.438v1082.12H0z"/><path fill="#E6EAF3" fill-rule="nonzero" d="M1055.9 334l328.1-73.867-4.547-19.904c-1.264-5.665-7.022-9.22-12.674-7.983l-307.491 68.758c-5.705 1.255-9.287 6.92-8.04 12.584 1.562 6.763 3.09 13.647 4.652 20.41V334zm-3.178-51.271l311.608-70.053c14.863-3.335 29.673 6.002 33.01 20.852L1430 377.724h-19.518l-14.81-65.313-328.352 74.407 20.326 89.555 1.827 7.934c.703 3.177 3.9 5.248 7.133 4.493l2.424-.561v19.097l-.351.105c-12.333 2.774-24.613-5.055-27.46-17.324l-39.493-174.352c-1.669-7.424-.456-14.393 3.584-20.852 4.041-6.46 9.961-10.514 17.393-12.181l.02-.003zM1133.618 383c-15.224 0-27.618 12.448-27.618 27.674v179.705c0 15.226 12.394 27.621 27.618 27.621h319.711c15.224 0 27.671-12.448 27.671-27.621V410.674c0-15.226-12.447-27.674-27.67-27.674h-319.712zm253.652 191c-2.353 0-4.27-1.916-4.27-4.254v-8.492c0-2.32 1.9-4.254 4.27-4.254h55.512c2.3 0 4.218 1.916 4.218 4.254v8.492c0 2.32-1.9 4.254-4.218 4.254h-55.512zm-79.052 0c-2.3 0-4.218-1.92-4.218-4.263v-8.474c0-2.378 1.9-4.263 4.218-4.263h55.564c2.3 0 4.218 1.92 4.218 4.263v8.474c0 2.325-1.9 4.263-4.218 4.263h-55.564zm-78 0c-2.3 0-4.218-1.92-4.218-4.263v-8.474c0-2.378 1.9-4.263 4.218-4.263h55.564c2.3 0 4.218 1.92 4.218 4.263v8.474c0 2.325-1.9 4.263-4.218 4.263h-55.564zm-22.436-17c2.3 0 4.218 1.92 4.218 4.263v8.474c0 2.325-1.9 4.263-4.218 4.263h-55.564c-2.3 0-4.218-1.92-4.218-4.263v-8.474c0-2.378 1.9-4.263 4.218-4.263h55.564zm234.931-134c2.392 0 4.287 1.877 4.287 4.246v36.508c0 2.386-2.002 4.246-4.287 4.246h-82.426c-2.356 0-4.287-1.93-4.287-4.246v-36.508c0-2.334 1.949-4.246 4.287-4.246z"/></g></svg>