<svg xmlns="http://www.w3.org/2000/svg" width="401" height="418" xmlns:v="https://vecta.io/nano"><path fill="#e6eaf3" d="M297.666 0h113.999C415.159 0 418 2.841 418 6.335v114.001c0 3.494-2.841 6.335-6.335 6.335H297.666c-3.494 0-6.335-2.841-6.335-6.335V6.335c0-3.494 2.841-6.335 6.335-6.335zm6.335 12.67v101.332h101.33V12.67h-101.33zM81.42 294.365l69.654 114.001c2.58 4.213-.457 9.634-5.405 9.634H6.344c-4.947 0-7.985-5.421-5.405-9.634l69.671-114.001c2.465-4.033 8.327-4.033 10.809 0h0zm-5.405 15.446l-58.389 95.521h116.762l-58.373-95.521zm6.319-62.813c0 3.494-2.825 6.335-6.319 6.335a6.33 6.33 0 0 1-6.335-6.335V139.33c0-41.963 34.027-75.992 75.991-75.992 41.979 0 76.008 34.028 76.008 75.992v139.345c0 34.975 28.345 63.319 63.334 63.319 34.974 0 63.318-28.345 63.318-63.319V171.006c0-3.494 2.841-6.335 6.335-6.335s6.335 2.841 6.335 6.335v107.669c0 41.963-34.027 75.992-75.991 75.992-41.979 0-76.008-34.028-76.008-75.992V139.33c0-34.975-28.362-63.319-63.334-63.319s-63.334 28.345-63.334 63.319v107.669z"/></svg>