<svg xmlns="http://www.w3.org/2000/svg" width="100" height="100" xmlns:v="https://vecta.io/nano"><path fill="#fff" d="M98.701 0H1.299A1.3 1.3 0 0 0 0 1.299v74.675a1.3 1.3 0 0 0 1.299 1.299h40.909v4.89l-3.013 6.032-2.719 2.714h-9.202c-.34 0-.665.132-.908.37l-6.656 6.494c-.375.37-.497.928-.294 1.421a1.3 1.3 0 0 0 1.202.807h58.604c.528 0 1.004-.32 1.207-.812.375-.923.375-.923-6.793-7.914a1.31 1.31 0 0 0-.908-.365h-9.202l-2.719-2.719-3.013-6.027v-4.89h40.909A1.3 1.3 0 0 0 100 75.974V1.299A1.3 1.3 0 0 0 98.701 0h0zM2.597 2.598h94.805v62.338H2.597V2.598zM57.64 87.662H42.36l1.948-3.896h11.384l1.949 3.896zm5.347 5.844H72.2l3.962 3.896H23.809l3.992-3.896h9.213a1.3 1.3 0 0 0 .918-.38l2.866-2.866h18.405l2.866 2.866a1.3 1.3 0 0 0 .918.38h-.001zm-7.792-12.338h-10.39v-3.896h10.39v3.896zm42.208-6.494H2.598v-7.143h94.805v7.143z"/><path fill="#8c9dc5" d="M82.109 39.181c-1.286 0-2.501.317-3.573.865L68.243 26.474c1.332-1.382 2.155-3.252 2.155-5.308 0-4.257-3.502-7.72-7.807-7.72s-7.807 3.463-7.807 7.72c0 1.664.539 3.202 1.449 4.468L41.087 40.613a7.83 7.83 0 0 0-4.519-1.433c-1.286 0-2.501.317-3.573.865L22.703 26.474c1.332-1.382 2.155-3.252 2.155-5.308 0-4.257-3.502-7.721-7.807-7.721s-7.807 3.464-7.807 7.721 3.502 7.72 7.807 7.72c1.286 0 2.501-.317 3.573-.865l10.292 13.571c-1.332 1.382-2.155 3.252-2.155 5.308 0 4.257 3.502 7.72 7.807 7.72s7.807-3.463 7.807-7.72c0-1.664-.539-3.202-1.449-4.468l15.152-14.984a7.77 7.77 0 0 0 4.513 1.438c1.286 0 2.501-.317 3.573-.865l10.292 13.571c-1.332 1.382-2.155 3.252-2.155 5.308 0 4.257 3.502 7.72 7.807 7.72s7.807-3.463 7.807-7.72-3.502-7.72-7.807-7.72h0zM57.387 21.166c0-2.84 2.333-5.147 5.205-5.147s5.205 2.307 5.205 5.147c0 1.211-.442 2.312-1.154 3.192l-3.009-3.966c-.224-.297-.574-.483-.95-.513-.371-.025-.747.111-1.011.372l-3.548 3.508c-.457-.759-.737-1.644-.737-2.594h0zM36.569 41.754c.961 0 1.855.276 2.628.729l-2.485 2.458-2.119-2.795a5.17 5.17 0 0 1 1.977-.392h0zM17.051 26.313c-2.872 0-5.205-2.307-5.205-5.147s2.333-5.147 5.205-5.147 5.205 2.307 5.205 5.147c0 1.211-.442 2.312-1.154 3.192l-3.009-3.966a1.31 1.31 0 0 0-1.82-.256c-.574.427-.691 1.231-.259 1.799l3.019 3.981c-.615.256-1.281.397-1.982.397h0zm24.722 20.588c0 2.84-2.333 5.147-5.205 5.147s-5.205-2.307-5.205-5.147c0-1.211.442-2.312 1.154-3.192l3.009 3.966c.224.297.574.483.95.513.376.02.747-.111 1.011-.372l3.548-3.508c.457.759.737 1.644.737 2.594h0zm20.818-20.588c-.961 0-1.855-.276-2.628-.729l2.485-2.458 2.119 2.795a5.17 5.17 0 0 1-1.977.392h0zm19.517 25.735c-2.872 0-5.205-2.307-5.205-5.147 0-1.211.442-2.312 1.154-3.192l3.009 3.966c.259.337.645.513 1.042.513a1.32 1.32 0 0 0 .778-.256c.574-.427.691-1.231.259-1.799l-3.019-3.981c.615-.256 1.281-.397 1.982-.397 2.872 0 5.205 2.307 5.205 5.147s-2.333 5.147-5.205 5.147h0z"/></svg>