<svg xmlns="http://www.w3.org/2000/svg" width="85" height="78" xmlns:v="https://vecta.io/nano"><path fill="#e6eaf3" d="M13.174 52.617a1.52 1.52 0 0 1 1.352.84h0-.004l3.262 6.602 7.289 1.09h.023a1.5 1.5 0 0 1 1.211 1.023c.176.543.027 1.137-.383 1.535h0l-5.301 5.141 1.25 7.262a1.53 1.53 0 0 1-.598 1.469 1.52 1.52 0 0 1-.883.281c-.242.004-.484-.055-.699-.172h0l-6.52-3.43-6.52 3.43c-.504.27-1.117.23-1.582-.109a1.49 1.49 0 0 1-.59-1.469h0 .004l1.238-7.262-5.269-5.141c-.41-.398-.559-.992-.383-1.535s.644-.941 1.211-1.023h0l7.289-1.09 3.262-6.602a1.49 1.49 0 0 1 1.34-.84zm58.626.004c.57 0 1.094.324 1.344.836h0l3.262 6.602 7.289 1.09h.019c.566.082 1.035.477 1.211 1.023s.031 1.137-.379 1.535h0l-5.27 5.141 1.238 7.262c.098.563-.137 1.133-.598 1.469s-1.078.379-1.582.109h0l-6.52-3.43-6.512 3.43c-.215.117-.453.176-.699.172-.441.004-.863-.191-1.148-.527s-.41-.789-.332-1.223h0 .004l1.238-7.262-5.269-5.141c-.41-.398-.559-.992-.383-1.535s.644-.941 1.211-1.023h0l7.269-1.09 3.262-6.602c.25-.512.773-.836 1.344-.836zm-29.301-7.289c.57 0 1.094.324 1.348.836h0-.004l4.461 9 10 1.449a1.51 1.51 0 0 1 1.219 1.02 1.5 1.5 0 0 1-.379 1.543h0l-7.219 7 1.699 9.898a1.53 1.53 0 0 1-.598 1.469c-.258.188-.566.285-.883.281-.242.004-.484-.055-.699-.168h0 .004l-8.922-4.691-8.91 4.691c-.508.266-1.121.223-1.582-.113s-.695-.906-.598-1.469h0l1.699-9.93-7.211-7a1.49 1.49 0 0 1-.371-1.496 1.5 1.5 0 0 1 1.141-1.035h0l10-1.449 4.461-9a1.5 1.5 0 0 1 1.344-.836zm.016 4.848l-3.461 7a1.5 1.5 0 0 1-1.129.82h0l-7.723 1.117 5.602 5.461c.355.348.516.844.43 1.332h0l-1.32 7.711 6.922-3.641c.437-.227.961-.227 1.398 0h0l6.922 3.641-1.32-7.711h-.051a1.52 1.52 0 0 1 .461-1.332h0v.004l5.609-5.461L47.104 58c-.484-.074-.902-.379-1.121-.82h0l-3.469-7zm-29.329 7.36l-2.262 4.59c-.227.441-.648.746-1.141.82h0l-5.059.73 3.629 3.609c.352.348.512.844.43 1.328h0l-.859 5 4.602-2.379c.437-.227.961-.227 1.398 0h0l4.441 2.34-.871-5a1.51 1.51 0 0 1 .43-1.328h0l3.719-3.57-5.07-.73c-.484-.074-.898-.383-1.117-.82h0l-2.27-4.59zm58.61 0l-2.262 4.59c-.223.438-.645.746-1.129.82h0-.004l-5.059.73 3.66 3.57c.359.34.523.84.434 1.328h0-.004l-.859 5 4.531-2.379c.215-.113.449-.172.691-.172a1.62 1.62 0 0 1 .699.172h0-.004l4.531 2.379-.859-5c-.09-.488.074-.988.434-1.328h0-.004l3.66-3.57-5.059-.73c-.484-.074-.906-.383-1.129-.82h0l-2.269-4.59zM42.437 21.778a72.6 72.6 0 0 1 8.637.621c6.543 1.008 11.32 6.723 11.152 13.34h0l1.82 15.199a1.5 1.5 0 0 1-1.312 1.66h0-.188a1.5 1.5 0 0 1-1.481-1.32h0l-1.84-15.27a1.38 1.38 0 0 1 0-.18h0a10.23 10.23 0 0 0-8.629-10.469 72.76 72.76 0 0 0-8.191-.582 83.2 83.2 0 0 0-8.481.59c-5.059.68-8.578 4.992-8.578 10.461h0v.16l-1.672 15.281a1.51 1.51 0 0 1-1.664 1.336c-.828-.094-1.426-.84-1.336-1.668h0l1.699-15.191c.031-6.871 4.723-12.48 11.172-13.359 2.949-.352 5.918-.555 8.891-.609zM31.585 34.579l.138.003c.828.059 1.449.777 1.395 1.605h0-.004l-1.059 15c-.051.785-.703 1.395-1.488 1.391h0-.109c-.398-.023-.769-.207-1.031-.508s-.391-.695-.359-1.09h0l1-15h.051c.055-.832.773-1.453 1.605-1.398zm21.34.01a1.5 1.5 0 0 1 1.602 1.391h0l1.059 15a1.5 1.5 0 0 1-1.391 1.598h0-.109c-.785.004-1.438-.605-1.488-1.391h0-.004l-1.059-15c-.051-.824.566-1.535 1.391-1.598zM42.265 0c5.899 0 10.34 4.148 10.34 9.738S48.187 21.59 42.265 21.59s-10.34-6.262-10.34-11.852C31.925 4.18 36.366 0 42.265 0zm.019 2.999l-.239.004c-4.118.109-7.12 2.817-7.12 6.735 0 4 3.27 8.852 7.34 8.852s7.34-4.941 7.34-8.852S46.515 3 42.265 3l.019-.001z"/></svg>