<svg xmlns="http://www.w3.org/2000/svg" width="465" height="523" xmlns:v="https://vecta.io/nano"><path fill="#e6eaf3" d="M350.11 0l-456.768.007a7.33 7.33 0 0 0-5.191 2.156A7.36 7.36 0 0 0-114 7.365h0v318.778a7.36 7.36 0 0 0 2.151 5.203 7.33 7.33 0 0 0 5.191 2.156h0H6.631l25.41 109.924c.602 2.673 2.639 4.772 5.277 5.462s5.421-.144 7.285-2.127h0-.029l102.79-113.257h22.916v111.241a7.36 7.36 0 0 0 2.151 5.203 7.33 7.33 0 0 0 5.191 2.156h0 122.695l62.781 68.528c1.836 2.012 4.646 2.817 7.256 2.127 2.639-.69 4.675-2.788 5.306-5.433h0l-.029-.029 14.684-65.193h67.341a7.33 7.33 0 0 0 5.191-2.156 7.36 7.36 0 0 0 2.151-5.203h0V249.305c0-4.053-3.298-7.359-7.342-7.359h0-100.206V7.359c0-4.082-3.298-7.359-7.342-7.359h0zm7.341 256.665h93.385v180.663h-66.079a7.33 7.33 0 0 0-7.342 5.749h0l-13.222 57.231-54.837-60.48c-1.405-1.552-3.356-2.415-5.449-2.443h0-118.937V333.414h165.14a7.33 7.33 0 0 0 5.191-2.156 7.36 7.36 0 0 0 2.151-5.203h0v-69.39zM-99.312 14.72h442.078v303.98H144.212a7.26 7.26 0 0 0-5.421 2.443h0L43.343 426.438 19.912 324.506c-.746-3.421-3.843-5.806-7.342-5.72h0-111.882V14.72zm470.508 325.311a12.95 12.95 0 1 0 0 25.907 12.95 12.95 0 1 0 0-25.907zm-53.192 0a12.95 12.95 0 1 0 0 25.907 12.95 12.95 0 1 0 0-25.907zm-53.192 0a12.95 12.95 0 1 0 0 25.907 12.95 12.95 0 1 0 0-25.907zm-54.54-199.161c-12.058 0-21.834 9.787-21.834 21.859s9.775 21.859 21.834 21.859 21.834-9.787 21.834-21.859-9.775-21.859-21.834-21.859zm-88.953 0c-12.058 0-21.834 9.787-21.834 21.859s9.775 21.859 21.834 21.859 21.834-9.787 21.834-21.859-9.775-21.859-21.834-21.859zm-88.953 0c-12.058 0-21.834 9.787-21.834 21.859s9.775 21.859 21.834 21.859 21.834-9.787 21.834-21.859-9.775-21.859-21.834-21.859z"/></svg>