<svg xmlns="http://www.w3.org/2000/svg" width="62" height="71"><path fill="#e6eaf3" d="M38.5 54a12.98 12.98 0 007.046 2.006 13.67 13.67 0 006.581-1.705l.373-.214V71l-6.063-4.445a1.543 1.543 0 00-1.562-.077l-.131.077h-.003L38.678 71 38.5 54zM54.978.001a6.92 6.92 0 015.02 2.067 6.985 6.985 0 011.998 5.067V55.04a3.79 3.79 0 01-.98 2.727 3.752 3.752 0 01-2.616 1.234h-3.247v-7.572a13.51 13.51 0 003.579-12.189c-.907-4.406-3.949-8.067-8.105-9.756s-8.878-1.18-12.585 1.352-5.909 6.755-5.869 11.259a13.25 13.25 0 003.861 9.334V59H17.849a4.214 4.214 0 01-4.093-3.96V5.37A8.574 8.574 0 0012 0zM45.5 31c6.073 0 11 4.926 11 11s-4.926 11-11 11a11 11 0 01-11-11c0-6.073 4.923-11 11-11zM5.498 0v.175h1.011C9.26 1.054 11 2.815 11 5.539V38l-7.151-.003c-2.2 0-3.849-2.111-3.849-4.31V5.539C.042 2.6 2.439.182 5.498 0zm47.989 19.374H22.352c-.729 0-1.316.59-1.316 1.321a1.32 1.32 0 001.316 1.321h31.136a1.32 1.32 0 100-2.643zm-15.788-8.805H22.352c-.729 0-1.316.59-1.316 1.321s.588 1.318 1.316 1.318h15.347a1.32 1.32 0 001.316-1.318 1.32 1.32 0 00-1.316-1.321z"/></svg>