<svg xmlns="http://www.w3.org/2000/svg" width="120" height="100" xmlns:v="https://vecta.io/nano"><path fill="#fff" d="M105.403 35.294c.512 0 .993.256 1.271.677h0l13.078 19.744c.304.466.329 1.063.066 1.554a1.56 1.56 0 0 1-1.337.817h0-12.005c-1.586 11.838-7.533 22.684-16.696 30.458h0C81.183 95.84 70.339 100 60.03 100c-6.747 0-13.773-1.789-20.323-5.167a49.98 49.98 0 0 1-17.162-14.565 1.5 1.5 0 0 1-.309-1.133c.056-.406.274-.772.608-1.012a1.53 1.53 0 0 1 1.155-.266c.405.07.765.301.998.637 4.25 5.714 9.762 10.395 16.114 13.678h0c6.124 3.163 12.664 4.837 18.92 4.837 9.59 0 19.715-3.909 27.775-10.746 8.515-7.183 14.067-17.211 15.607-28.178h0-11.084a1.55 1.55 0 0 1-1.337-.817 1.53 1.53 0 0 1 .066-1.569h0-.005l13.079-19.727c.284-.421.76-.677 1.271-.677zM59.969 0c6.747 0 13.773 1.789 20.323 5.168a49.98 49.98 0 0 1 17.161 14.567 1.48 1.48 0 0 1 .309 1.133c-.056.406-.274.772-.608 1.013-.329.241-.75.336-1.155.266s-.765-.301-.998-.637c-4.245-5.714-9.756-10.396-16.114-13.679h0c-6.119-3.163-12.659-4.837-18.915-4.837-9.59 0-19.715 3.91-27.774 10.747-8.52 7.183-14.072 17.213-15.612 28.18h0H27.67a1.55 1.55 0 0 1 1.337.817h0a1.5 1.5 0 0 1-.065 1.553h0l.005-.005-13.079 19.744a1.51 1.51 0 0 1-1.277.677 1.51 1.51 0 0 1-1.266-.682h0v.005L.247 44.29c-.304-.466-.329-1.063-.066-1.554a1.56 1.56 0 0 1 1.337-.817h0 12.005c1.586-11.839 7.532-22.686 16.696-30.46h0C38.816 4.16 49.66 0 59.969 0zm-35.11 44.927H4.334L14.592 60.41l10.268-15.483zm80.544-5.332L95.14 55.077h20.526l-10.263-15.482z"/><path fill="#8c9dc5" d="M67.817 49.229c.288-.204.65-.279.995-.196 3.759.913 7.102 3.084 9.495 6.159S82 62.073 82 65.987h0v1.788c0 .329-.132.646-.366.875a1.2 1.2 0 0 1-.872.35h0-41.524a1.2 1.2 0 0 1-.872-.35c-.234-.229-.366-.546-.366-.875h0v-1.788c.008-3.963 1.349-7.802 3.804-10.89h0c2.418-3.034 5.761-5.167 9.503-6.063.345-.083.707-.008.995.196a13.23 13.23 0 0 0 15.515 0zm.963 2.379a15.69 15.69 0 0 1-8.759 2.692 15.68 15.68 0 0 1-8.767-2.671h0c-2.964.851-5.592 2.609-7.529 5.039-2.101 2.642-3.249 5.926-3.257 9.319h0v.513h39.065v-.513c0-6.693-4.392-12.57-10.754-14.378zM55.407 23.913a12 12 0 0 1 13.077 2.602c3.432 3.433 4.462 8.594 2.602 13.078A12 12 0 0 1 60 47h0c-6.623-.008-11.992-5.373-12-12.001a12 12 0 0 1 7.407-11.086zM60 25.545l-.269.004a9.47 9.47 0 0 0-9.189 9.45c0 3.827 2.305 7.276 5.839 8.738s7.602.657 10.305-2.051 3.513-6.772 2.051-10.306-4.911-5.835-8.737-5.835h0z"/></svg>