<svg xmlns="http://www.w3.org/2000/svg" width="351" height="692"><path fill="#141c35" d="M350.986 419.596c.025 10.213-4.011 20-11.232 27.176l-79.02 79.091V602h-20.057v-80.299c0-2.66 1.053-5.219 2.933-7.102l81.96-82.033c7.145-7.152 7.145-18.77 0-25.947-7.17-7.152-18.778-7.152-25.924 0l-61.9 61.955-14.19-14.203 81.96-82.033c7.145-7.152 7.145-18.77 0-25.947-7.17-7.152-18.778-7.152-25.924 0l-81.96 82.033-14.19-14.203L285.46 312.114c7.145-7.152 7.145-18.77 0-25.947-7.17-7.152-18.778-7.152-25.924 0l-21.786 21.806-.251-.251-7.045 35.256a10.02 10.02 0 01-9.827 8.08c-.025 22.157-17.976 40.124-40.113 40.15H140.4a40.1 40.1 0 01-5.491-.376l-14.566 14.579v27.678a78.126 78.126 0 01-22.99 55.557l-14.19-14.203a58.07 58.07 0 0017.124-41.354v-31.843c0-2.66 1.053-5.219 2.933-7.102l41.843-41.881c7.145-7.152 7.145-18.77 0-25.947-7.17-7.152-18.778-7.152-25.924 0l-93.192 93.275h-.025c-3.761 3.764-5.892 8.883-5.867 14.203v257.299H-.003V433.794a39.884 39.884 0 0111.759-28.381l75.991-76.059-17.324-86.749h-.025a10.04 10.04 0 011.103-6.901 110.46 110.46 0 01-20.784-76.509 110.395 110.395 0 0135.801-70.74A110.243 110.243 0 01160.458 60a110.23 110.23 0 0173.937 28.456 110.383 110.383 0 0135.801 70.74 110.456 110.456 0 01-20.784 76.509c1.178 2.108 1.579 4.542 1.103 6.901l-6.042 30.212.852-.853h.025c14.266-14.278 37.18-15.056 52.398-1.757s17.525 36.109 5.29 52.219a38.367 38.367 0 0125.924 24.792c4.036 12.045 1.83 25.319-5.867 35.432 16.497 4.693 27.88 19.774 27.905 36.939l-.014.006zM180.507 371.14c11.082-.025 20.032-8.983 20.057-20.075h-31.916a38.213 38.213 0 01-9.401 15.407l-4.663 4.667h25.923zm-75.741-58.844l.175-.176c9.903-9.912 24.419-13.626 37.882-9.711 13.463 3.94 23.717 14.88 26.726 28.581h42.846l16.045-80.299H92.452l12.313 61.604zm81.935-153.846l-21.761 10.89a10.08 10.08 0 01-8.975 0l-21.761-10.89 14.416 72.166h23.667l14.415-72.166zm64.007 11.945c0-29.736-14.617-57.564-39.061-74.402a90.192 90.192 0 00-83.41-9.987c-27.728 10.589-48.487 34.202-55.482 63.085a90.324 90.324 0 0020.433 81.526h34.974l-17.65-88.38a10.06 10.06 0 013.736-9.937 10.04 10.04 0 0110.58-1.004l35.626 17.841 35.626-17.841a10.04 10.04 0 0110.58 1.004 10.06 10.06 0 013.736 9.937l-17.65 88.38h34.974a89.865 89.865 0 0022.99-60.224v.003z"/><path fill="#e47c2b" d="M291 150v20h31v-20h-31zM0 150v20h31v-20H0zM268 40l-21 21 14 14 21-21-14-14zM54 40L40 54l21 21 14-14-21-21zm96-40v31h20V0h-20z"/></svg>