<svg xmlns="http://www.w3.org/2000/svg" width="100" height="100"><path fill="#2f4b9f" d="M81.244 22.119l.004-.246a21.86 21.86 0 00-8.859-17.586 21.868 21.868 0 00-33.624 10.301 18.47 18.47 0 00-4.39-.527 18.805 18.805 0 00-10.211 3.063 18.84 18.84 0 00-6.918 8.113 20.31 20.31 0 00-15.46 11.746 20.313 20.313 0 001.473 19.363 20.31 20.31 0 0017.054 9.277 1.56 1.56 0 100-3.125A17.17 17.17 0 014.224 39.28a17.17 17.17 0 0111.895-10.617 19.267 19.267 0 00-.242 7.219 1.56 1.56 0 001.785 1.301 1.54 1.54 0 001.019-.621 1.55 1.55 0 00.281-1.164 15.97 15.97 0 01.824-8.141c.004-.012.012-.02.016-.027a15.703 15.703 0 0114.574-10.043c1.211 0 2.414.145 3.59.43a22.324 22.324 0 00-.176 7.793c.133.852.934 1.438 1.785 1.305s1.437-.934 1.305-1.785a19.09 19.09 0 01.43-8.004v-.012A18.754 18.754 0 0153.044 4.226a18.75 18.75 0 0117.124 2.309 18.74 18.74 0 017.957 15.34v.039a25.52 25.52 0 00-14 4.422c-.348.227-.59.582-.672.988a1.56 1.56 0 00.223 1.176 1.565 1.565 0 002.164.449c15.265-10.031 31.034.703 31.034 14.801a18.826 18.826 0 01-17.305 18.692 1.57 1.57 0 00-1.457 1.68 1.58 1.58 0 00.547 1.07 1.57 1.57 0 001.144.367 21.88 21.88 0 0017.304-10.93c3.601-6.285 3.855-13.945.676-20.457s-9.367-11.023-16.538-12.051zm-6.246 27.879v13.82a38.688 38.688 0 01-6.648 21.801 38.63 38.63 0 01-17.772 14.266 1.52 1.52 0 01-1.156 0A38.62 38.62 0 0131.649 85.62a38.68 38.68 0 01-6.648-21.801v-13.82a1.56 1.56 0 011.067-1.481l23.437-7.813a1.54 1.54 0 01.992 0l23.437 7.813A1.56 1.56 0 0175 49.999h-.002zm-3.125 1.125L49.999 43.83l-21.874 7.293v12.695a35.54 35.54 0 005.937 19.785A35.55 35.55 0 0050 96.749a35.55 35.55 0 0015.937-13.145 35.54 35.54 0 005.937-19.785l-.001-12.695zm-21.378-5.477l18.749 6.25a1.56 1.56 0 011.066 1.481v10.441a33.82 33.82 0 01-19.648 30.925 1.58 1.58 0 01-1.328 0 33.83 33.83 0 01-14.375-12.57 33.82 33.82 0 01-5.273-18.355V53.377a1.56 1.56 0 011.066-1.481l18.749-6.25a1.54 1.54 0 01.992 0zm-.496 3.125l-17.187 5.731v9.316a30.72 30.72 0 004.594 16.363A30.693 30.693 0 0050 91.595a30.705 30.705 0 0012.594-11.414 30.72 30.72 0 004.594-16.363v-9.316l-17.187-5.731z"/><path fill="#e47c2b" d="M48.436 72.706l11.395-11.395a1.55 1.55 0 011.109-.473 1.56 1.56 0 011.574 1.574 1.564 1.564 0 01-.473 1.109l-12.5 12.5a1.563 1.563 0 01-2.21 0l-6.25-6.25a1.58 1.58 0 01-.469-1.109 1.58 1.58 0 011.57-1.57 1.58 1.58 0 011.109.469l5.144 5.145z"/></svg>