<svg xmlns="http://www.w3.org/2000/svg" width="100" height="100"><path fill="#e47c2b" d="M75.351 65.845h.344c3.974 0 7.206 3.234 7.206 7.203s-3.232 7.203-7.206 7.203a7.22 7.22 0 01-7.211-7.203 1.26 1.26 0 00-1.258-1.262 1.26 1.26 0 00-1.258 1.262c0 4.817 3.522 8.815 8.125 9.584v2.564a1.26 1.26 0 001.258 1.262 1.26 1.26 0 001.258-1.262v-2.465a9.74 9.74 0 008.808-9.683 9.74 9.74 0 00-9.721-9.727h-.344a7.22 7.22 0 01-7.211-7.203c0-3.974 3.232-7.203 7.211-7.203s7.206 3.234 7.206 7.203a1.26 1.26 0 001.258 1.262 1.26 1.26 0 001.258-1.262c0-4.935-3.699-9.017-8.464-9.638v-2.51a1.26 1.26 0 00-1.258-1.262 1.26 1.26 0 00-1.258 1.262v2.509c-4.77.621-8.469 4.698-8.469 9.638.005 5.364 4.367 9.727 9.726 9.727z"/><path fill="#2f4b9f" d="M98.75 28.189H70.459V1.25A1.25 1.25 0 0069.209 0H1.25A1.25 1.25 0 000 1.25v91.538a1.25 1.25 0 001.25 1.25h48.916v4.712a1.25 1.25 0 001.25 1.25H98.75a1.25 1.25 0 001.25-1.25V29.438c0-.693-.557-1.25-1.25-1.25v.001zM67.051 2.5l-5.918 10.581H9.292L3.374 2.5h63.677zM2.5 91.538V6.059l4.971 8.882a1.25 1.25 0 001.094.64h53.306c.454 0 .869-.244 1.094-.64l5-8.936v22.183H51.422a1.25 1.25 0 00-1.25 1.25v37.7H39.2a1.25 1.25 0 100 2.5h10.972v11.177H39.2a1.25 1.25 0 100 2.5h10.972v8.228L2.5 91.538zm95-60.85V97.5H52.666V30.688H97.5zM31.051 66.667c.683 0 1.241.574 1.241 1.288v14.091c0 .709-.553 1.288-1.241 1.288H10.616c-.688 0-1.241-.579-1.241-1.288V67.955c0-.709.553-1.288 1.241-1.288zm-1.241 2.571H11.857v11.516H29.81V69.238z"/></svg>