<svg xmlns="http://www.w3.org/2000/svg" width="455" height="497" xmlns:v="https://vecta.io/nano"><path fill="#e6eaf3" d="M448.933 388c3.337 0 6.067 2.73 6.067 6.067v96.866c0 3.337-2.73 6.067-6.067 6.067h-96.866c-3.337 0-6.067-2.73-6.067-6.067v-96.866c0-3.337 2.73-6.067 6.067-6.067h96.866zm-6.067 12.135h-84.731v84.731h84.731v-84.731zM139.512 242c3.333 0 6.061 2.732 6.061 6.071s-2.727 6.071-6.061 6.071H60.826c-49.999 0-90.704 40.775-90.704 90.857s40.706 90.857 90.704 90.857h272.113c3.333 0 6.061 2.732 6.061 6.071s-2.626 6.071-5.959 6.071l.002.002H60.826C4.162 448-42 401.762-42 345S4.16 242 60.826 242h78.686zm116.421-49c3.337 0 6.067 2.73 6.067 6.067v96.866c0 3.337-2.73 6.067-6.067 6.067h-96.866c-3.337 0-6.067-2.73-6.067-6.067v-96.866c0-3.337 2.73-6.067 6.067-6.067h96.866zm-6.067 12.135h-84.731v84.731h84.731v-84.731zM352.174 49C408.838 49 455 95.238 455 152c0 56.864-46.16 103-102.826 103v-.002h-78.08c-3.333 0-6.061-2.732-6.061-6.071s2.727-6.071 6.061-6.071h78.08c49.999 0 90.704-40.775 90.704-90.857s-40.706-90.857-90.704-90.857H80.061c-3.333 0-6.061-2.732-6.061-6.071S76.727 49 80.061 49h272.113zM60.933 0C64.27 0 67 2.727 67 6.061v96.777c0 3.435-2.73 6.162-6.067 6.162v-.003h-96.866c-3.337 0-6.067-2.727-6.067-6.061V6.061C-42 2.728-39.27 0-35.933 0h96.866zm-6.067 12.118h-84.731v84.756h84.731V12.118z"/></svg>