<svg xmlns="http://www.w3.org/2000/svg" width="56" height="56" viewBox="0 0 56 56">
  <path fill="#E57D2C" fill-rule="evenodd" d="M28,0 C12.6456088,0 0,12.6450308 0,28 C0,43.3549692 12.6450308,56 28,56 C43.3549692,56 56,43.3549692 56,28 C56,12.6450308 43.3549692,0 28,0 Z M41.7288905,20.5933358 L25.1097073,37.2125191 C24.929064,37.3931624 24.5677774,37.5738057 24.2064908,37.5738057 C23.8452042,37.5738057 23.4839176,37.3931624 23.3032743,37.2125191 L14.2711095,28.1803543 C13.7291796,27.6384244 13.7291796,26.7352079 14.2711095,26.193278 C14.8130393,25.6513481 15.7162558,25.6513481 16.2581857,26.193278 L24.2064908,34.1415831 L39.9227466,18.4253272 C40.4646765,17.8833973 41.367893,17.8833973 41.9098229,18.4253272 C42.2711095,19.1479004 42.2711095,20.0511169 41.7291796,20.5930468 L41.7288905,20.5933358 Z"/>
</svg>
