<svg xmlns="http://www.w3.org/2000/svg" width="153" height="100"><path fill="#2f4b9f" d="M137.015 25.969a5.91 5.91 0 015.897 5.885l-.001 64.39h8.216c1.031 0 1.872.838 1.872 1.878a1.88 1.88 0 01-1.872 1.878H1.872A1.88 1.88 0 010 98.122c0-1.04.842-1.878 1.872-1.878h6.202V76.036a5.91 5.91 0 011.756-4.203 5.93 5.93 0 014.22-1.701h14.051c3.244 0 5.885 2.631 5.903 5.891v20.22h10.398l.001-48.336c.03-3.236 2.653-5.849 5.885-5.855H64.34c3.238-.006 5.879 2.606 5.916 5.855v48.336h10.507l.001-34.272a5.91 5.91 0 015.824-5.824h14.051c3.244 0 5.885 2.631 5.897 5.891v34.205h10.526v-64.39a5.91 5.91 0 015.903-5.885h14.051zM28.102 73.889H14.051a2.166 2.166 0 00-1.567.6c-.421.41-.659.967-.665 1.548l-.001 20.208h18.441l-.004-20.208a2.157 2.157 0 00-2.153-2.147zm36.25-28.11H50.301a2.158 2.158 0 00-2.153 2.129v48.336H66.51l.001-48.336a2.162 2.162 0 00-2.159-2.129zm36.365 14.064H86.666a2.16 2.16 0 00-2.159 2.129v34.272h18.362l.001-34.272a2.157 2.157 0 00-2.153-2.129zm36.298-30.118h-14.051a2.16 2.16 0 00-2.159 2.129l-.001 64.39h18.363v-64.39a2.157 2.157 0 00-2.153-2.129z"/><path fill="#e47c2b" d="M133.094.608a7.83 7.83 0 014.793 7.219c-.061 4.35-3.598 7.843-7.934 7.831a7.778 7.778 0 01-4.519-1.536l-24.285 21.192a7.85 7.85 0 01.453 2.632 7.92 7.92 0 01-7.928 7.831 7.803 7.803 0 01-7.123-4.919 7.83 7.83 0 01-.513-3.763l-22.051-8.992a7.92 7.92 0 01-6.642 3.608 7.776 7.776 0 01-5.465-2.13L28.25 48.729A7.845 7.845 0 0128.963 52c-.061 4.344-3.598 7.837-7.934 7.831a7.825 7.825 0 01-7.123-4.925 7.844 7.844 0 011.775-8.486 7.787 7.787 0 0110.229-.635L49.836 26.41a7.79 7.79 0 01-.425-2.542 7.953 7.953 0 014.824-7.427 7.915 7.915 0 018.678 1.652 7.961 7.961 0 012.322 6.463l22.096 9.011c.288-.427.62-.829.996-1.2a7.783 7.783 0 018.489-1.64 7.78 7.78 0 012.24 1.431l23.992-20.937a8.352 8.352 0 01-.211-.482 7.84 7.84 0 011.769-8.492 7.79 7.79 0 018.489-1.64zM21.028 47.784a4.14 4.14 0 00-3.787 2.594 4.156 4.156 0 00.927 4.509 4.124 4.124 0 004.501.875 4.14 4.14 0 002.543-3.83 4.136 4.136 0 00-1.232-2.943 4.145 4.145 0 00-2.952-1.205zm72.645-14.047a4.125 4.125 0 00-3.787 2.594 4.146 4.146 0 00.927 4.503 4.12 4.12 0 004.501.881 4.14 4.14 0 002.543-3.83 4.185 4.185 0 00-1.232-2.949 4.14 4.14 0 00-2.716-1.195l-.236-.004zm-36.33-14.066a4.14 4.14 0 00-2.952 1.199 4.16 4.16 0 00-1.232 2.949 3.99 3.99 0 00.592 2.117 4.152 4.152 0 003.598 2.068 4.16 4.16 0 003.592-2.092 4.185 4.185 0 00-.006-4.16 4.156 4.156 0 00-3.371-2.074l-.221-.006zM129.953 3.6v.018c-1.671.012-3.171 1.034-3.799 2.588s-.262 3.334.927 4.515a4.13 4.13 0 004.507.875 4.15 4.15 0 002.537-3.842 4.18 4.18 0 00-1.226-2.943 4.177 4.177 0 00-2.946-1.211z"/></svg>