<svg xmlns="http://www.w3.org/2000/svg" width="497" height="529" fill="#141d35"><path d="M454.852 0c12.235 0 22.205 9.985 22.205 22.239v281.124a20.33 20.33 0 01-.404 4.03h15.171c2.851 0 5.177 2.329 5.177 5.185v7.129C497 341.379 479.386 359 457.768 359H39.212C17.594 359 0 341.359 0 319.708v-7.129c0-2.856 2.326-5.185 5.177-5.185l13.59.02a20.47 20.47 0 01-.404-4.03V22.259C18.362 10.005 28.332.02 40.567.02zM204.998 317.763H10.351v1.944c0 15.94 12.943 28.922 28.858 28.922h418.556c15.936 0 28.883-12.983 28.883-28.922v-1.944H292v1.944c0 9.114-7.402 16.507-16.482 16.507H221.48c-9.1 0-16.482-7.393-16.482-16.507v-1.944zm79.237 0h-71.469l-.001 1.944c0 4.82 3.903 8.729 8.716 8.729h54.038c4.813 0 8.716-3.909 8.716-8.729v-1.944zM454.871 10.37H40.587a11.88 11.88 0 00-11.851 11.869v281.124c0 1.438.263 2.775.728 4.03h436.51c.485-1.256.748-2.613.748-4.03V22.239a11.88 11.88 0 00-11.851-11.869zm-11.316 18.35c2.852 0 5.177 2.329 5.177 5.185v253.401c0 2.856-2.326 5.185-5.177 5.185H51.935c-2.852 0-5.177-2.329-5.177-5.185V33.905c0-2.856 2.326-5.185 5.177-5.185zm-5.177 10.369H57.113v243.032h381.265V39.089zM253.507 58.952a3.883 3.883 0 013.876 3.889v197.667h12.194v-62.906a3.883 3.883 0 013.876-3.889h30.121a3.883 3.883 0 013.876 3.889v62.927h7.349V150.534a3.883 3.883 0 013.876-3.889h30.121a3.883 3.883 0 013.876 3.889v109.994h7.349V97.313a3.883 3.883 0 013.876-3.889h30.121a3.883 3.883 0 013.876 3.889v163.215h19.058c2.14 0 3.876 1.742 3.876 3.889s-1.736 3.889-3.876 3.889H253.507c-2.14 0-3.876-1.742-3.876-3.909V62.84a3.883 3.883 0 013.876-3.889zM95.78 255.835c0 11.589-17.346 11.589-17.346 0s17.346-11.589 17.346 0zm203.916-54.339h-22.369v59.018h22.369v-59.018zm90.444-100.294h-22.369v159.311h22.369V101.202zm-45.222 53.226H322.55v106.084h22.369V154.428zM194.49 252.434c2.14 0 3.877 1.693 3.857 3.779 0 2.086-1.737 3.779-3.877 3.779h-81.238c-2.14 0-3.877-1.693-3.877-3.779s1.737-3.779 3.877-3.779zM87.107 215.4c4.794 0 8.673 3.908 8.673 8.692a8.68 8.68 0 01-8.673 8.692c-4.794 0-8.673-3.908-8.673-8.692a8.68 8.68 0 018.673-8.692zm107.383 5.291c2.14 0 3.877 1.693 3.857 3.779 0 2.086-1.737 3.779-3.877 3.779h-81.238c-2.14 0-3.877-1.693-3.877-3.779s1.737-3.779 3.877-3.779zM87.107 183.657a8.68 8.68 0 110 17.383 8.68 8.68 0 110-17.383zm107.363 4.535c2.14 0 3.877 1.693 3.877 3.779s-1.737 3.779-3.877 3.779h-81.238c-2.14 0-3.877-1.693-3.877-3.779s1.737-3.779 3.877-3.779zM136.485 52.149c32.445 0 58.846 26.443 58.846 58.949 0 .606 0 1.212-.06 1.818 0 .04-.04.081-.04.141-1.047 31.599-26.946 56.974-58.727 56.994h-.02C104 170.048 77.68 143.544 77.68 111.099c0-32.504 26.378-58.949 58.805-58.949zm-3.872 7.96c-61.808 4.629-62.959 97.197.02 101.985v-49.436c0-.04-.02-.061-.02-.081zm54.676 56.346h-46.937v45.638c24.607-1.859 44.398-21.192 46.937-45.638zm-46.937-56.344v48.587h47.098c-1.209-26.142-21.665-46.587-47.098-48.587z"/><path d="M245.767 360.416c-24.137-1.857 31.545-1.919 7.408 0v65.601h93.705c9.074 0 16.482 7.426 16.482 16.524v13.925l17.526.001c8.827 0 16.05 7.241 16.112 16.153v40.29c0 8.85-7.222 16.091-16.05 16.091h-41.419c-8.827 0-16.05-7.241-16.05-16.091v-40.29c0-8.85 7.222-16.091 16.05-16.091h16.42v-13.925c0-5.013-4.074-9.098-9.074-9.098h-93.705v23.022h17.037c8.827 0 16.05 7.241 16.05 16.091v40.29c0 8.85-7.222 16.091-16.05 16.091H228.79c-8.827 0-16.05-7.241-16.05-16.091v-40.29c0-8.85 7.222-16.091 16.05-16.091h16.976v-23.022h-93.705c-5 0-9.074 4.085-9.074 9.098v13.925h16.482c8.827 0 16.05 7.241 16.05 16.091v40.29c0 8.85-7.222 16.091-16.05 16.091H118.05c-8.827 0-16.05-7.241-16.05-16.091v-40.29c0-8.85 7.222-16.091 16.05-16.091h17.531v-13.925c0-9.097 7.407-16.524 16.482-16.524h93.705zm135.128 103.536h-41.419c-4.753 0-8.642 3.899-8.642 8.664v40.29c0 4.765 3.889 8.664 8.642 8.664h41.419c4.753 0 8.642-3.899 8.642-8.664v-40.29c0-4.765-3.889-8.664-8.642-8.664zm-221.426-.06H118.05c-4.753 0-8.642 3.899-8.642 8.664v40.29c0 4.765 3.889 8.664 8.642 8.664h41.419c4.753 0 8.642-3.899 8.642-8.664v-40.29c0-4.765-3.889-8.664-8.642-8.664zm110.683 0h-41.419c-4.753 0-8.642 3.899-8.642 8.664v40.29c0 4.765 3.889 8.664 8.642 8.664h41.419c4.753 0 8.642-3.899 8.642-8.664v-40.29c0-4.765-3.827-8.664-8.642-8.664zm-117.104 15.5c1.479-1.437 3.82-1.437 5.237.062s1.417 3.873-.062 5.31l-21.441 21.239c-.739.687-1.664 1.062-2.588 1.062s-1.848-.375-2.588-1.062l-11.891-11.806c-1.479-1.437-1.479-3.811-.062-5.31s3.758-1.499 5.237-.062l9.303 9.245zm221.061 0c1.479-1.437 3.82-1.437 5.237.062s1.417 3.873-.062 5.31l-21.441 21.239c-.739.687-1.664 1.062-2.588 1.062s-1.848-.375-2.588-1.062l-11.891-11.806c-1.479-1.437-1.479-3.811-.062-5.31s3.759-1.499 5.237-.062l9.303 9.245zm-137.967-.018c1.47-1.412 3.796-1.412 5.204.061l7.837 8.043 8.021-7.859c1.47-1.412 3.796-1.412 5.204.061s1.408 3.807-.061 5.219l-8.021 7.859 7.837 8.043c1.408 1.474 1.408 3.807-.061 5.219-.735.675-1.653 1.044-2.572 1.044-.98 0-1.898-.368-2.633-1.105l-7.837-8.043-8.021 7.859c-.735.675-1.653 1.044-2.572 1.044-.98 0-1.898-.368-2.633-1.105-1.409-1.474-1.409-3.807.061-5.219l8.021-7.859-7.837-8.043c-1.408-1.474-1.408-3.807.061-5.219z"/></svg>