<svg xmlns="http://www.w3.org/2000/svg" width="62" height="71" xmlns:v="https://vecta.io/nano"><path fill="#e6eaf3" d="M38.5 54a12.98 12.98 0 0 0 7.046 2.006c2.31-.006 4.575-.595 6.581-1.705l.373-.214V71l-6.063-4.445c-.469-.309-1.071-.335-1.562-.077l-.131.077h-.003L38.678 71 38.5 54zM54.978.001a6.92 6.92 0 0 1 5.02 2.067c1.323 1.348 2.045 3.175 1.998 5.067h0v47.905a3.79 3.79 0 0 1-.98 2.727c-.675.745-1.615 1.19-2.616 1.234h0-3.247v-7.572a13.51 13.51 0 0 0 3.579-12.189c-.907-4.406-3.949-8.067-8.105-9.756s-8.878-1.18-12.585 1.352-5.909 6.755-5.869 11.259a13.25 13.25 0 0 0 3.861 9.334h0v7.571H17.849c-2.172-.056-3.96-1.767-4.093-3.96h0V5.37c.037-1.938-.581-3.833-1.756-5.37h0zM45.5 31c6.073 0 11 4.926 11 11s-4.926 11-11 11a11 11 0 0 1-11-11c0-6.073 4.923-11 11-11zM5.498 0v.175h1.011C9.26 1.054 11 2.815 11 5.539h0V38l-7.151-.003c-2.2 0-3.849-2.111-3.849-4.31h0V5.539C.042 2.6 2.439.182 5.498 0h0zm47.989 19.374H22.352c-.729 0-1.316.59-1.316 1.321a1.32 1.32 0 0 0 1.316 1.321h0 31.136a1.32 1.32 0 1 0 0-2.643h0zm-15.788-8.805H22.352c-.729 0-1.316.59-1.316 1.321s.588 1.318 1.316 1.318h0 15.347a1.32 1.32 0 0 0 1.316-1.318 1.32 1.32 0 0 0-1.316-1.321h0z"/></svg>