<svg xmlns="http://www.w3.org/2000/svg" width="85" height="78"><path fill="#e6eaf3" d="M13.174 52.617a1.52 1.52 0 011.352.84h-.004l3.262 6.602 7.289 1.09h.023a1.5 1.5 0 011.211 1.023 1.495 1.495 0 01-.383 1.535l-5.301 5.141 1.25 7.262a1.53 1.53 0 01-.598 1.469 1.52 1.52 0 01-.883.281 1.417 1.417 0 01-.699-.172l-6.52-3.43-6.52 3.43c-.504.27-1.117.23-1.582-.109a1.49 1.49 0 01-.59-1.469h.004l1.238-7.262-5.269-5.141a1.5 1.5 0 01.828-2.558l7.289-1.09 3.262-6.602a1.49 1.49 0 011.34-.84zm58.626.004c.57 0 1.094.324 1.344.836l3.262 6.602 7.289 1.09h.019c.566.082 1.035.477 1.211 1.023s.031 1.137-.379 1.535l-5.27 5.141 1.238 7.262c.098.563-.137 1.133-.598 1.469s-1.078.379-1.582.109l-6.52-3.43-6.512 3.43a1.406 1.406 0 01-.699.172 1.492 1.492 0 01-1.48-1.75h.004l1.238-7.262-5.269-5.141a1.5 1.5 0 01.828-2.558l7.269-1.09 3.262-6.602c.25-.512.773-.836 1.344-.836zm-29.301-7.289c.57 0 1.094.324 1.348.836h-.004l4.461 9 10 1.449a1.51 1.51 0 011.219 1.02 1.5 1.5 0 01-.379 1.543l-7.219 7 1.699 9.898a1.53 1.53 0 01-.598 1.469 1.463 1.463 0 01-.883.281 1.457 1.457 0 01-.699-.168h.004l-8.922-4.691-8.91 4.691a1.502 1.502 0 01-2.18-1.582l1.699-9.93-7.211-7a1.49 1.49 0 01-.371-1.496 1.5 1.5 0 011.141-1.035l10-1.449 4.461-9a1.5 1.5 0 011.344-.836zm.016 4.848l-3.461 7a1.5 1.5 0 01-1.129.82l-7.723 1.117 5.602 5.461c.355.348.516.844.43 1.332l-1.32 7.711 6.922-3.641a1.52 1.52 0 011.398 0l6.922 3.641-1.32-7.711h-.051a1.52 1.52 0 01.461-1.332v.004l5.609-5.461L47.104 58a1.505 1.505 0 01-1.121-.82l-3.469-7zm-29.329 7.36l-2.262 4.59a1.537 1.537 0 01-1.141.82l-5.059.73 3.629 3.609c.352.348.512.844.43 1.328l-.859 5 4.602-2.379a1.52 1.52 0 011.398 0l4.441 2.34-.871-5a1.51 1.51 0 01.43-1.328l3.719-3.57-5.07-.73a1.508 1.508 0 01-1.117-.82l-2.27-4.59zm58.61 0l-2.262 4.59a1.533 1.533 0 01-1.129.82h-.004l-5.059.73 3.66 3.57c.359.34.523.84.434 1.328h-.004l-.859 5 4.531-2.379c.215-.113.449-.172.691-.172a1.62 1.62 0 01.699.172h-.004l4.531 2.379-.859-5c-.09-.488.074-.988.434-1.328h-.004l3.66-3.57-5.059-.73a1.535 1.535 0 01-1.129-.82l-2.269-4.59zM42.437 21.778a72.6 72.6 0 018.637.621 13.162 13.162 0 0111.152 13.34l1.82 15.199a1.5 1.5 0 01-1.312 1.66h-.188a1.5 1.5 0 01-1.481-1.32l-1.84-15.27a1.38 1.38 0 010-.18 10.23 10.23 0 00-8.629-10.469 72.76 72.76 0 00-8.191-.582 83.2 83.2 0 00-8.481.59c-5.059.68-8.578 4.992-8.578 10.461v.16l-1.672 15.281a1.51 1.51 0 01-1.664 1.336 1.516 1.516 0 01-1.336-1.668l1.699-15.191c.031-6.871 4.723-12.48 11.172-13.359a88.613 88.613 0 018.891-.609zM31.585 34.579l.138.003a1.508 1.508 0 011.395 1.605h-.004l-1.059 15a1.485 1.485 0 01-1.488 1.391h-.109a1.48 1.48 0 01-1.39-1.598l1-15h.051a1.502 1.502 0 011.605-1.398zm21.34.01a1.5 1.5 0 011.602 1.391l1.059 15a1.5 1.5 0 01-1.391 1.598h-.109a1.484 1.484 0 01-1.488-1.391h-.004l-1.059-15a1.507 1.507 0 011.391-1.598zM42.265 0c5.899 0 10.34 4.148 10.34 9.738S48.187 21.59 42.265 21.59s-10.34-6.262-10.34-11.852C31.925 4.18 36.366 0 42.265 0zm.019 2.999l-.239.004c-4.118.109-7.12 2.817-7.12 6.735 0 4 3.27 8.852 7.34 8.852s7.34-4.941 7.34-8.852S46.515 3 42.265 3l.019-.001z"/></svg>