<svg xmlns="http://www.w3.org/2000/svg" width="358" height="323" xmlns:v="https://vecta.io/nano"><g fill="#1a2b52"><path d="M71.037 0a4.54 4.54 0 0 0-4.54 4.545v144.879H4.54c-2.5 0-4.54 2.042-4.54 4.545V274.67c0 1.207.479 2.361 1.33 3.213s2.004 1.331 3.21 1.331h41.638l9.079 40.263-.018.018c.39 1.633 1.649 2.929 3.281 3.355 1.614.426 3.352-.071 4.486-1.314l38.818-42.322h75.863c1.206 0 2.359-.479 3.21-1.331s1.33-2.006 1.33-3.213v-68.702h14.169l63.556 69.947h-.018c1.153 1.225 2.873 1.74 4.504 1.314a4.51 4.51 0 0 0 3.263-3.373l15.711-67.888h70.048c1.206 0 2.359-.479 3.21-1.331s1.33-2.006 1.33-3.213V4.549c0-1.207-.479-2.361-1.33-3.213S354.666.004 353.46.004L71.037 0zm102.108 270.125h-73.54c-1.295.018-2.5.55-3.369 1.509L62.33 308.986l-8.175-35.345a4.53 4.53 0 0 0-4.54-3.551H8.758V158.514h57.74v42.855c0 1.207.479 2.361 1.33 3.213s2.004 1.331 3.21 1.331h102.107v64.211zm175.773-73.246h-69.177c-2.163-.053-4.079 1.42-4.54 3.533l-14.488 62.953-59.016-65.029a4.49 4.49 0 0 0-3.352-1.509H75.578V9.091h273.34v187.788z"/><path d="M157.5 87c7.456 0 13.5 6.044 13.5 13.5s-6.044 13.5-13.5 13.5-13.5-6.044-13.5-13.5S150.044 87 157.5 87zm55 0c7.456 0 13.5 6.044 13.5 13.5s-6.044 13.5-13.5 13.5-13.5-6.044-13.5-13.5S205.044 87 212.5 87zm55 0c7.456 0 13.5 6.044 13.5 13.5s-6.044 13.5-13.5 13.5-13.5-6.044-13.5-13.5S260.044 87 267.5 87z" opacity=".3"/></g><g fill="#fff"><path d="M358 91.144v110.279c0 1.207-.479 2.361-1.33 3.213s-2.004 1.331-3.21 1.331h0-70.048l-15.711 67.888a4.51 4.51 0 0 1-3.263 3.373c-1.631.426-3.352-.089-4.504-1.314h0 .018l-63.556-69.947h-14.169v68.702c0 1.207-.479 2.361-1.33 3.213s-2.004 1.331-3.21 1.331h0-75.863l-38.818 42.322c-1.135 1.243-2.873 1.74-4.486 1.314-1.631-.426-2.891-1.722-3.281-3.355h0l.018-.018-9.079-40.263H4.54c-1.206 0-2.359-.479-3.21-1.331S0 275.877 0 274.67h0V153.968c0-2.503 2.039-4.545 4.54-4.545h0 61.958l-.001-37.756 9.081 2.309v82.849h122.767a4.49 4.49 0 0 1 3.352 1.509h0l59.016 65.029 14.488-62.953c.461-2.113 2.376-3.586 4.54-3.533h0 69.177l-.001-101.286L358 91.144zM66.499 158.514H8.758V270.09h41.073a4.53 4.53 0 0 1 4.324 3.551h0l8.175 35.345 33.906-37.352c.869-.959 2.075-1.491 3.369-1.509h0 73.54v-64.211H71.038c-1.206 0-2.359-.479-3.21-1.331s-1.33-2.006-1.33-3.213h0v-42.855z"/><path d="M58 211a8 8 0 1 1 0 16 8 8 0 1 1 0-16zm32.889 0a8 8 0 1 1 0 16 8 8 0 1 1 0-16zm32.889 0a8 8 0 1 1 0 16 8 8 0 1 1 0-16z" opacity=".25"/></g></svg>