<svg xmlns="http://www.w3.org/2000/svg" width="94" height="100"><path fill="#e47c2b" d="M45.451 32.762c.535 0 .961-.214 1.282-.647l5.882-8.279c.535-.752.322-1.722-.322-2.26-.748-.538-1.713-.323-2.247.323l-4.599 6.452-1.604-2.26c-.535-.752-1.495-.861-2.247-.323s-.856 1.504-.322 2.26l2.995 4.192c.217.328.648.542 1.182.542z"/><path fill="#2f4b9f" d="M84.376 0H27.053c-5.347.429-9.516 5.054-9.516 10.43v68.707l-15.932.004A1.65 1.65 0 000 80.754v9.677C.426 95.808 5.025 100 10.373 100h55.61c2.887 0 5.56-1.185 7.595-3.335 1.817-1.936 2.887-4.515 2.887-7.203V20.858h15.932A1.65 1.65 0 0094 19.246V10.43C93.891 5.053 89.722.428 84.375 0zM10.373 96.775c-3.743 0-6.843-2.902-7.164-6.666v-7.746H55.61v7.203c0 1.289.213 2.688.748 3.873l.643 1.289c0 .109.109.214.109.214.213.428.535.752.748 1.075l.109.109c.109.214.322.323.426.538h-48.02v.109zm62.774-7.203c0 1.827-.748 3.549-1.926 4.948-1.391 1.504-3.208 2.26-5.238 2.26a6.906 6.906 0 01-2.139-.323c-2.03-.647-3.743-2.151-4.491-4.192-.322-.861-.535-1.827-.535-2.688v-8.816a1.65 1.65 0 00-1.604-1.613H20.745V10.43c0-3.763 2.887-6.88 6.63-7.203h48.658l-.109.109c-.109.214-.322.323-.426.538 0 0 0 .109-.109.109-.109.214-.322.428-.426.647-.961 1.399-1.495 3.012-1.713 4.729v1.611l.004 78.6-.108-.001zM62.774 65.164a1.65 1.65 0 011.604 1.613 1.65 1.65 0 01-1.604 1.613H31.013a1.65 1.65 0 01-1.604-1.613 1.65 1.65 0 011.604-1.613zm0-8.498a1.65 1.65 0 011.604 1.613 1.65 1.65 0 01-1.604 1.613H31.013a1.65 1.65 0 01-1.604-1.613 1.65 1.65 0 011.604-1.613zm0-8.388c.856 0 1.604.756 1.604 1.613a1.65 1.65 0 01-1.604 1.613H31.013a1.65 1.65 0 01-1.604-1.613 1.65 1.65 0 011.604-1.613zM46.09 11.077c.639-.428 1.495-.428 2.03 0 4.278 3.44 6.951 4.729 11.229 6.342.643.214 1.069.857 1.069 1.504 0 8.712-2.03 14.949-5.882 18.603-3.163 2.872-6.42 3.005-7.365 3.011h-.334c-1.069 0-4.278-.319-7.377-3.117-3.957-3.55-5.882-9.892-5.778-18.498 0-.643.426-1.289 1.069-1.504 4.278-1.613 6.952-2.902 11.338-6.342zm.856 3.226c-3.743 2.902-6.417 4.301-10.051 5.7.104 7.098 1.709 12.256 4.704 15.054 2.295 2.12 4.677 2.255 5.231 2.26h.451c.543-.007 2.834-.151 5.121-2.26 2.887-2.798 4.595-7.955 4.704-15.054-3.743-1.399-6.417-2.797-10.16-5.7zm37.112-11.08c3.743.323 6.63 3.44 6.63 7.203l-.005 7.208H76.355v-7.85c.109-.861.322-1.722.643-2.474.856-1.936 2.565-3.335 4.599-3.873.426-.109.856-.214 1.282-.214h1.178z"/></svg>