<svg xmlns="http://www.w3.org/2000/svg" width="120" height="100"><path fill="#fff" d="M105.403 35.294c.512 0 .993.256 1.271.677l13.078 19.744c.304.466.329 1.063.066 1.554a1.56 1.56 0 01-1.337.817h-12.005C104.89 69.924 98.943 80.77 89.78 88.544 81.183 95.84 70.339 100 60.03 100c-6.747 0-13.773-1.789-20.323-5.167a49.98 49.98 0 01-17.162-14.565 1.5 1.5 0 01-.309-1.133c.056-.406.274-.772.608-1.012a1.53 1.53 0 011.155-.266c.405.07.765.301.998.637a46.942 46.942 0 0016.114 13.678c6.124 3.163 12.664 4.837 18.92 4.837 9.59 0 19.715-3.909 27.775-10.746 8.515-7.183 14.067-17.211 15.607-28.178H92.329a1.55 1.55 0 01-1.337-.817 1.53 1.53 0 01.066-1.569h-.005l13.079-19.727c.284-.421.76-.677 1.271-.677zM59.969 0c6.747 0 13.773 1.789 20.323 5.168a49.98 49.98 0 0117.161 14.567 1.48 1.48 0 01.309 1.133 1.5 1.5 0 01-.608 1.013 1.535 1.535 0 01-2.153-.371A46.843 46.843 0 0078.887 7.831c-6.119-3.163-12.659-4.837-18.915-4.837-9.59 0-19.715 3.91-27.774 10.747-8.52 7.183-14.072 17.213-15.612 28.18H27.67a1.55 1.55 0 011.337.817 1.5 1.5 0 01-.065 1.553l.005-.005L15.868 64.03a1.51 1.51 0 01-1.277.677 1.51 1.51 0 01-1.266-.682v.005L.247 44.29a1.527 1.527 0 01-.066-1.554 1.56 1.56 0 011.337-.817h12.005c1.586-11.839 7.532-22.686 16.696-30.46C38.816 4.16 49.66 0 59.969 0zm-35.11 44.927H4.334L14.592 60.41 24.86 44.927zm80.544-5.332L95.14 55.077h20.526l-10.263-15.482z"/><path fill="#8c9dc5" d="M67.817 49.229c.288-.204.65-.279.995-.196 3.759.913 7.102 3.084 9.495 6.159S82 62.073 82 65.987v1.788c0 .329-.132.646-.366.875a1.2 1.2 0 01-.872.35H39.238a1.2 1.2 0 01-.872-.35 1.226 1.226 0 01-.366-.875v-1.788a17.555 17.555 0 013.804-10.89 17.316 17.316 0 019.503-6.063c.345-.083.707-.008.995.196a13.23 13.23 0 0015.515 0zm.963 2.379a15.69 15.69 0 01-8.759 2.692 15.68 15.68 0 01-8.767-2.671 14.88 14.88 0 00-7.529 5.039 15.026 15.026 0 00-3.257 9.319v.513h39.065v-.513c0-6.693-4.392-12.57-10.754-14.378zM55.407 23.913a12 12 0 0113.077 2.602 11.997 11.997 0 012.602 13.078A12 12 0 0160 47c-6.623-.008-11.992-5.373-12-12.001a12 12 0 017.407-11.086zM60 25.545l-.269.004a9.47 9.47 0 00-9.189 9.45c0 3.827 2.305 7.276 5.839 8.738s7.602.657 10.305-2.051 3.513-6.772 2.051-10.306-4.911-5.835-8.737-5.835z"/></svg>