<svg xmlns="http://www.w3.org/2000/svg" width="42" height="48" xmlns:v="https://vecta.io/nano"><path fill="#1f3161" d="M41.455 46.769c0 .678-.548 1.231-1.219 1.231s-1.219-.553-1.219-1.231c0-9.12-6.687-13.538-18.289-13.538S2.439 37.649 2.439 46.769c0 .678-.548 1.231-1.219 1.231S0 47.447 0 46.769c0-10.755 7.939-16 20.727-16s20.727 5.245 20.727 16zM20.727 28.308c-6.339 0-10.973-7.221-10.973-14.769C9.754 6.255 14.302 0 20.727 0s10.973 6.255 10.973 13.538c0 7.548-4.634 14.769-10.973 14.769zm0-2.462c4.715 0 8.535-5.957 8.535-12.308 0-6.063-3.648-11.077-8.535-11.077s-8.535 5.014-8.535 11.077c0 6.351 3.82 12.308 8.535 12.308z"/></svg>