<svg xmlns="http://www.w3.org/2000/svg" width="153" height="100" xmlns:v="https://vecta.io/nano"><path fill="#2f4b9f" d="M137.015 25.969a5.91 5.91 0 0 1 5.897 5.885l-.001 64.39h8.216c1.031 0 1.872.838 1.872 1.878a1.88 1.88 0 0 1-1.872 1.878H1.872A1.88 1.88 0 0 1 0 98.122c0-1.04.842-1.878 1.872-1.878h6.202V76.036a5.91 5.91 0 0 1 1.756-4.203c1.128-1.107 2.647-1.719 4.22-1.701h14.051c3.244 0 5.885 2.631 5.903 5.891v20.22h10.398l.001-48.336c.03-3.236 2.653-5.849 5.885-5.855H64.34c3.238-.006 5.879 2.606 5.916 5.855v48.336h10.507l.001-34.272a5.91 5.91 0 0 1 5.824-5.824h14.051c3.244 0 5.885 2.631 5.897 5.891v34.205h10.526v-64.39a5.91 5.91 0 0 1 5.903-5.885h14.051zM28.102 73.889H14.051c-.579-.018-1.147.196-1.567.6-.421.41-.659.967-.665 1.548l-.001 20.208h18.441l-.004-20.208c-.006-1.187-.97-2.147-2.153-2.147zm36.25-28.11H50.301c-1.177 0-2.134.948-2.153 2.129v48.336H66.51l.001-48.336c-.018-1.181-.982-2.129-2.159-2.129zm36.365 14.064H86.666a2.16 2.16 0 0 0-2.159 2.129v34.272h18.362l.001-34.272c-.018-1.181-.976-2.129-2.153-2.129zm36.298-30.118h-14.051a2.16 2.16 0 0 0-2.159 2.129l-.001 64.39h18.363v-64.39c-.018-1.181-.976-2.129-2.153-2.129z"/><path fill="#e47c2b" d="M133.094.608a7.83 7.83 0 0 1 4.793 7.219c-.061 4.35-3.598 7.843-7.934 7.831-1.664-.026-3.236-.583-4.519-1.536l-24.285 21.192a7.85 7.85 0 0 1 .453 2.632 7.92 7.92 0 0 1-7.928 7.831c-3.147-.049-5.952-1.988-7.123-4.919a7.83 7.83 0 0 1-.513-3.763l-22.051-8.992c-1.445 2.226-3.933 3.608-6.642 3.608-2.055.032-4.009-.752-5.465-2.13l-23.63 19.148c.461 1.006.713 2.118.713 3.271-.061 4.344-3.598 7.837-7.934 7.831-3.141-.055-5.952-1.994-7.123-4.925-1.165-2.924-.47-6.277 1.775-8.486 2.244-2.215 5.586-2.863 8.489-1.646.631.265 1.214.606 1.74 1.011l23.926-19.375a7.79 7.79 0 0 1-.425-2.542c-.043-3.23 1.86-6.161 4.824-7.427 2.958-1.266 6.385-.612 8.678 1.652 1.739 1.717 2.559 4.106 2.322 6.463l22.096 9.011c.288-.427.62-.829.996-1.2 2.238-2.215 5.586-2.857 8.489-1.64a7.78 7.78 0 0 1 2.24 1.431l23.992-20.937c-.075-.157-.145-.318-.211-.482a7.84 7.84 0 0 1 1.769-8.492 7.79 7.79 0 0 1 8.489-1.64zM21.028 47.784a4.14 4.14 0 0 0-3.787 2.594c-.628 1.554-.262 3.328.927 4.509 1.189 1.175 2.964 1.523 4.501.875a4.14 4.14 0 0 0 2.543-3.83c0-1.107-.445-2.166-1.232-2.943-.787-.783-1.848-1.211-2.952-1.205zm72.645-14.047c-1.671.018-3.165 1.04-3.787 2.594-.628 1.548-.262 3.328.927 4.503a4.12 4.12 0 0 0 4.501.881 4.14 4.14 0 0 0 2.543-3.83c-.006-1.107-.445-2.166-1.232-2.949a4.14 4.14 0 0 0-2.716-1.195l-.236-.004zm-36.33-14.066c-1.104-.012-2.165.422-2.952 1.199a4.16 4.16 0 0 0-1.232 2.949 3.99 3.99 0 0 0 .592 2.117c.744 1.285 2.116 2.068 3.598 2.068a4.16 4.16 0 0 0 3.592-2.092c.738-1.285.732-2.875-.006-4.16-.707-1.221-1.975-1.999-3.371-2.074l-.221-.006zM129.953 3.6v.018c-1.671.012-3.171 1.034-3.799 2.588s-.262 3.334.927 4.515a4.13 4.13 0 0 0 4.507.875 4.15 4.15 0 0 0 2.537-3.842 4.18 4.18 0 0 0-1.226-2.943c-.781-.777-1.842-1.211-2.946-1.211z"/></svg>