<svg xmlns="http://www.w3.org/2000/svg" width="317" height="512" xmlns:v="https://vecta.io/nano"><path fill="#141d35" d="M60.998 0C15.031 0-22.317 37.372-22.317 83.338c0 43.958 34.202 79.989 77.377 83.047v121.27l-91.465-49.628c5.135-10.827 8.104-22.883 8.104-35.653 0-45.945-37.372-83.316-83.315-83.316-45.967 0-83.384 37.372-83.384 83.316 0 45.967 37.416 83.361 83.384 83.361 28.955 0 54.45-14.846 69.41-37.305l97.272 52.776v55.946h-95.283v47.641h18.53L-9.789 512h141.627l11.899-107.205H162.2v-47.641H66.986v-85.75l96.866-53.379c14.891 22.816 40.609 37.974 69.81 37.974 45.967 0 83.338-37.417 83.338-83.361 0-45.967-37.372-83.339-83.338-83.339-45.945 0-83.361 37.372-83.361 83.339 0 12.502 2.835 24.334 7.814 34.983l-91.128 50.186v-91.42c43.176-3.081 77.377-39.113 77.377-83.047C144.364 37.373 106.97 0 61.003 0h-.005zm-.021 11C100.802 11 133 43.169 133 83.011 133 122.83 100.803 155 60.977 155S-11 122.83-11 83.011C-11 43.17 21.152 11 60.977 11zm.912 7.003c-3.251.045-5.856 2.741-5.833 5.994v12.144c-12.624 2.295-22.8 11.788-22.8 24.177 0 14.284 13.493 24.756 28.723 24.756 12.847 0 22.132 8.334 22.132 17.225 0 8.735-8.995 16.868-21.486 17.136-.245-.022-.49-.045-.735-.022-.2 0-.401 0-.601.022-12.469-.29-21.397-8.401-21.397-17.136.045-2.161-1.069-4.167-2.939-5.259-1.848-1.092-4.141-1.092-6.012 0-1.848 1.092-2.984 3.097-2.939 5.259 0 14.841 12.535 26.228 28.055 28.589v12.033c-.045 2.161 1.091 4.167 2.939 5.259s4.164 1.092 6.012 0c1.87-1.092 2.984-3.097 2.939-5.259v-12.055C83.442 128.505 96 117.118 96 102.3c0-16.69-15.898-29.124-34.022-29.124-9.93 0-16.832-6.351-16.832-12.857 0-6.484 6.858-12.835 16.744-12.88h.289c9.819.089 16.677 6.44 16.677 12.88-.045 2.161 1.069 4.167 2.917 5.259 1.87 1.092 4.164 1.092 6.034 0 1.848-1.092 2.961-3.097 2.917-5.259 0-12.367-10.153-21.86-22.778-24.177V23.996c.022-1.604-.623-3.142-1.759-4.278s-2.694-1.76-4.297-1.716h-.001zM234.023 101c39.848 0 71.977 32.17 71.977 72.012C306 212.83 273.87 245 234.023 245 194.198 245 162 212.83 162 173.011 162 133.17 194.197 101 234.023 101zm-.112 7c-3.275.023-5.904 2.72-5.859 5.995v12.144c-12.632 2.317-22.815 11.81-22.815 24.178 0 14.284 13.524 24.757 28.764 24.757 12.855 0 22.124 8.289 22.124 17.18 0 8.735-8.979 16.936-21.5 17.203-.245-.022-.468-.045-.713-.045-.201 0-.379 0-.579.022h-.022c-12.477-.312-21.455-8.446-21.455-17.18.201-2.251-.869-4.412-2.785-5.593s-4.345-1.181-6.261 0c-1.894 1.181-2.986 3.343-2.785 5.593 0 14.819 12.499 26.228 28.028 28.612v12.055c-.045 2.162 1.069 4.167 2.919 5.259 1.871 1.092 4.166 1.092 6.038 0 1.849-1.092 2.963-3.097 2.919-5.259v-12.033C255.457 218.527 268 207.073 268 192.254c0-16.69-15.841-29.08-33.999-29.08-9.937 0-16.866-6.351-16.866-12.858 0-6.484 6.907-12.835 16.799-12.88h.223c9.87.067 16.688 6.418 16.688 12.88-.045 2.162 1.069 4.167 2.941 5.259 1.849 1.092 4.166 1.092 6.016 0s2.986-3.097 2.919-5.259c0-12.39-10.159-21.882-22.792-24.178v-12.144c.022-1.604-.602-3.142-1.738-4.256-1.136-1.136-2.674-1.76-4.278-1.739h-.001zm-345.876 23C-72.134 131-40 163.152-40 202.977-40 242.824-72.135 275-111.965 275-151.819 275-184 242.825-184 202.977-184 163.151-151.82 131-111.965 131zm-.126 6c-1.56.023-3.075.67-4.189 1.806a6.03 6.03 0 0 0-1.671 4.255v12.098c-12.633 2.317-22.772 11.786-22.772 24.174 0 14.281 13.503 24.73 28.743 24.73 12.856 0 22.103 8.355 22.103 17.244 0 8.756-8.979 16.866-21.524 17.133-.223-.022-.446-.022-.691-.022-.178 0-.357 0-.535.022-12.5-.267-21.524-8.4-21.524-17.133a5.93 5.93 0 0 0-2.807-5.525c-1.916-1.181-4.3-1.181-6.216 0a5.93 5.93 0 0 0-2.807 5.525c0 14.816 12.522 26.201 28.03 28.563v12.053a5.95 5.95 0 0 0 2.919 5.258c1.872 1.092 4.167 1.092 6.038 0a5.95 5.95 0 0 0 2.919-5.258v-12.053C-90.544 247.508-78 236.123-78 221.307c0-16.688-15.842-29.098-33.979-29.098-9.96 0-16.911-6.372-16.911-12.878s6.952-12.855 16.911-12.855c9.938 0 16.822 6.35 16.822 12.855.089 3.231 2.718 5.815 5.949 5.815s5.882-2.584 5.949-5.815c0-12.388-10.16-21.878-22.816-24.196V143.06c.045-1.604-.579-3.164-1.716-4.3a5.96 5.96 0 0 0-4.3-1.761h-.002zM-28 369h178v24H-28v-24zm19 36h141l-10.567 95H1.522L-9 405z"/></svg>