<svg xmlns="http://www.w3.org/2000/svg" width="100" height="92"><path fill="#2f4b9f" d="M78.333 55.857v-4.271c0-8.514-7.475-15.443-16.667-15.443S45 43.071 45 51.585v4.271c-3.683 0-6.667 2.941-6.667 6.571V87.07c0 2.723 2.238 4.929 5 4.929H80c2.762 0 5-2.206 5-4.929V62.428c0-1.741-.704-3.413-1.954-4.645s-2.946-1.926-4.713-1.926zm-30-4.271c0-6.703 5.983-12.157 13.333-12.157S75 44.883 75 51.585v4.271h-5.238v-4.271c-.233-4.238-3.788-7.561-8.096-7.561s-7.863 3.323-8.096 7.561v4.271h-5.238v-4.271zm18.096 4.271h-9.525v-4.271c.233-2.419 2.296-4.267 4.762-4.267s4.529 1.848 4.762 4.267v4.271zm15.237 31.215c0 .435-.175.854-.487 1.162a1.68 1.68 0 01-1.179.481H43.333a1.655 1.655 0 01-1.667-1.643V62.428c0-1.815 1.492-3.286 3.333-3.286h33.333a3.36 3.36 0 012.358.961c.625.616.975 1.454.975 2.325v24.643z"/><path fill="#e47c2b" d="M61.668 64.072c-3.354-.004-6.183 2.452-6.608 5.729s1.696 6.358 4.942 7.179v5.163c0 .908.746 1.643 1.667 1.643s1.667-.735 1.667-1.643V76.98c3.246-.821 5.367-3.902 4.942-7.179s-3.254-5.734-6.608-5.729zm0 9.857c-1.35 0-2.562-.801-3.079-2.029s-.229-2.641.721-3.581 2.388-1.22 3.633-.711 2.058 1.704 2.058 3.035c0 .871-.35 1.709-.975 2.325a3.36 3.36 0 01-2.358.961z"/><path fill="#2f4b9f" d="M91.667 0H8.333C3.733.004.004 3.68 0 8.214v55.857c.004 4.534 3.733 8.21 8.333 8.214h25.001c.921 0 1.667-.735 1.667-1.643S34.255 69 33.334 69H8.333c-2.762 0-5-2.206-5-4.929V31.214H75c.921 0 1.667-.735 1.667-1.643s-.746-1.643-1.667-1.643H3.333v-9.857h93.333v9.857H84.999c-.921 0-1.667.735-1.667 1.643s.746 1.643 1.667 1.643h11.667v32.857c0 2.723-2.238 4.929-5 4.929H90c-.921 0-1.667.735-1.667 1.643s.746 1.643 1.667 1.643h1.667c4.6-.004 8.329-3.68 8.333-8.214V8.214C99.996 3.68 96.267.004 91.667 0zM3.334 14.785V8.214c0-2.723 2.238-4.929 5-4.929h83.333c2.762 0 5 2.206 5 4.929v6.571H3.334z"/></svg>