<svg xmlns="http://www.w3.org/2000/svg" width="409" height="406"><path fill="#e6eaf3" d="M24.899 122L353 48.133l-4.547-19.904c-1.264-5.664-7.022-9.22-12.675-7.983L28.288 89.004c-5.705 1.255-9.286 6.92-8.04 12.584l4.652 20.41V122zm-3.177-51.271L333.33.676c14.863-3.335 29.673 6.003 33.011 20.852L399 165.724h-19.518l-14.81-65.313L36.32 174.818l20.326 89.555 1.827 7.934c.703 3.177 3.9 5.248 7.133 4.493l2.424-.562v19.097l-.351.105c-12.333 2.773-24.613-5.055-27.459-17.325L.726 103.765C-.943 96.341.27 89.372 4.31 82.913s9.961-10.514 17.393-12.181l.019-.003zM102.618 171C87.394 171 75 183.448 75 198.674v179.705C75 393.605 87.394 406 102.618 406h319.711C437.553 406 450 393.552 450 378.379V198.674C450 183.448 437.553 171 422.329 171H102.618zM356.27 362c-2.353 0-4.27-1.916-4.27-4.254v-8.491c0-2.321 1.9-4.254 4.27-4.254h55.512c2.301 0 4.218 1.916 4.218 4.254v8.491c0 2.321-1.9 4.254-4.218 4.254H356.27zm-79.052 0c-2.301 0-4.218-1.92-4.218-4.263v-8.474c0-2.378 1.9-4.263 4.218-4.263h55.564c2.301 0 4.218 1.92 4.218 4.263v8.474c0 2.325-1.9 4.263-4.218 4.263h-55.564zm-78 0c-2.301 0-4.218-1.92-4.218-4.263v-8.474c0-2.378 1.9-4.263 4.218-4.263h55.564c2.301 0 4.218 1.92 4.218 4.263v8.474c0 2.325-1.9 4.263-4.218 4.263h-55.564zm-22.436-17c2.301 0 4.218 1.92 4.218 4.263v8.474c0 2.325-1.9 4.263-4.218 4.263h-55.564c-2.301 0-4.218-1.92-4.218-4.263v-8.474c0-2.378 1.9-4.263 4.218-4.263h55.564zm234.931-134c2.391 0 4.287 1.877 4.287 4.246v36.509c0 2.386-2.002 4.246-4.287 4.246h-82.426c-2.356 0-4.287-1.93-4.287-4.246v-36.509c0-2.333 1.949-4.246 4.287-4.246z"/></svg>