<svg xmlns="http://www.w3.org/2000/svg" width="82" height="100" xmlns:v="https://vecta.io/nano"><path d="M35.127 61.093l-9.49-9.48V38.711c4.11-.684 7.144-4.301 7.144-8.504 0-4.789-3.914-8.699-8.708-8.699s-8.708 3.91-8.708 8.699a8.63 8.63 0 0 0 7.144 8.504v14.176l9.49 9.48V100h3.034l-.004-38.906.098-.001zM18.394 30.207c0-3.129 2.546-5.668 5.674-5.668a5.68 5.68 0 0 1 5.674 5.668 5.68 5.68 0 0 1-5.674 5.668 5.68 5.68 0 0 1-5.674-5.668h0zm1.368 53.37l-9.49-9.48V61.191c4.11-.684 7.144-4.301 7.144-8.504 0-4.789-3.914-8.699-8.708-8.699S0 47.898 0 52.687a8.63 8.63 0 0 0 7.144 8.504v14.176l9.49 9.48v15.152h3.034l-.004-16.422h.098zM3.128 52.589c0-3.129 2.546-5.668 5.674-5.668a5.68 5.68 0 0 1 5.674 5.668 5.68 5.68 0 0 1-5.674 5.668c-3.128 0-5.674-2.539-5.674-5.668zm64.485 25.316c0-4.789-3.914-8.699-8.708-8.699s-8.708 3.91-8.708 8.699a8.63 8.63 0 0 0 7.144 8.504v13.586h3.034l-.004-13.582c4.11-.687 7.242-4.203 7.242-8.508h0zm-8.708 5.672c-3.132 0-5.674-2.543-5.674-5.668a5.68 5.68 0 0 1 5.674-5.668 5.68 5.68 0 0 1 5.674 5.668c0 3.125-2.542 5.668-5.674 5.668zm-4.011-38.026c0-4.887-4.012-8.797-9.002-8.699-4.599.098-8.415 4.008-8.415 8.699a8.63 8.63 0 0 0 7.144 8.504v45.941h3.034V54.054c4.106-.684 7.238-4.301 7.238-8.504h0zm-8.708 5.672c-3.132 0-5.674-2.543-5.674-5.668a5.68 5.68 0 0 1 5.674-5.668 5.68 5.68 0 0 1 5.674 5.668c0 3.125-2.542 5.668-5.674 5.668z" fill="#2f4b9f"/><path fill="#e47c2b" d="M82 8.699C82 3.91 78.086 0 73.292 0s-8.615 3.91-8.615 8.699a8.63 8.63 0 0 0 7.144 8.504v20.039L23.873 85.139v14.859h3.034V86.51l47.948-47.898h.098v-21.41C78.868 16.519 82 13 82 8.699h0zm-8.708 5.672c-3.132 0-5.674-2.543-5.674-5.668s2.546-5.668 5.674-5.668 5.674 2.543 5.674 5.668a5.68 5.68 0 0 1-5.674 5.668z"/></svg>