<svg xmlns="http://www.w3.org/2000/svg" width="100" height="100"><path fill="#fff" d="M7.046 62.784h17.016V98.75c0 .693.557 1.25 1.25 1.25H98.75c.693 0 1.25-.557 1.25-1.25V25.176c0-.029-.015-.049-.015-.073a1.12 1.12 0 00-.068-.332c-.015-.039-.024-.078-.044-.117a1.3 1.3 0 00-.234-.352L75.708.366a1.21 1.21 0 00-.361-.244c-.039-.02-.078-.029-.117-.044a1.265 1.265 0 00-.332-.068c-.024.005-.049-.01-.073-.01H25.312c-.693 0-1.25.557-1.25 1.25v17.676H7.046A7.06 7.06 0 000 25.972v29.761a7.06 7.06 0 007.046 7.051zM76.075 4.269l19.659 19.659H76.075V4.269zM26.563 2.501h47.012v22.676c0 .693.557 1.25 1.25 1.25h22.676v71.074H26.563V62.785h24.878c-.146.972-.249 1.963-.249 2.979 0 10.982 8.936 19.913 19.913 19.913s19.913-8.936 19.913-19.913-8.936-19.913-19.913-19.913a19.89 19.89 0 00-5.342.747l.005-20.625c0-3.887-3.164-7.046-7.046-7.046H26.563V2.501zM71.11 48.346c9.6 0 17.413 7.813 17.413 17.413S80.71 83.171 71.11 83.171s-17.413-7.813-17.413-17.413 7.808-17.413 17.413-17.413zM2.501 25.974a4.55 4.55 0 014.546-4.546h51.675a4.55 4.55 0 014.546 4.546v21.485a19.987 19.987 0 00-11.289 12.823H7.047a4.55 4.55 0 01-4.546-4.546V25.974z"/><path fill="#8c9dc5" d="M70.855 52.206c.668 0 1.203.552 1.203 1.24v1.094c2.816.576 4.945 3.133 4.945 6.194 0 .688-.536 1.24-1.203 1.24s-1.203-.552-1.203-1.24c0-2.111-1.678-3.835-3.742-3.835s-3.742 1.719-3.742 3.835 1.678 3.835 3.742 3.835h.202c3.389 0 6.149 2.833 6.149 6.315 0 3.128-2.233 5.719-5.148 6.213v1.075c0 .688-.536 1.24-1.203 1.24s-1.203-.552-1.203-1.24V77.02c-2.717-.659-4.748-3.153-4.748-6.136 0-.688.536-1.24 1.203-1.24s1.203.552 1.203 1.24c0 2.111 1.678 3.835 3.742 3.835s3.742-1.719 3.742-3.835-1.678-3.835-3.742-3.835h-.202c-3.389 0-6.149-2.838-6.144-6.315 0-3.061 2.13-5.617 4.945-6.194v-1.094c0-.688.536-1.24 1.203-1.24zm-27.299 0c.719 0 1.297.491 1.297 1.103s-.578 1.103-1.297 1.103h-8.435c-.719 0-1.297-.491-1.297-1.103s.578-1.103 1.297-1.103zm-13.933 0c.699 0 1.26.491 1.26 1.103s-.561 1.103-1.26 1.103H8.613c-.694 0-1.26-.491-1.26-1.103s.561-1.103 1.26-1.103zm-13.988-6.618c.708 0 1.277.491 1.277 1.103s-.569 1.103-1.277 1.103H8.63c-.708 0-1.277-.491-1.277-1.103s.569-1.103 1.277-1.103zm39.706 0c.703 0 1.277.495 1.277 1.103s-.569 1.103-1.277 1.103h-7.004c-.708 0-1.277-.491-1.277-1.103s.569-1.103 1.277-1.103zm-13.235 0c.708 0 1.277.491 1.277 1.103s-.569 1.103-1.277 1.103h-7.004c-.708 0-1.277-.491-1.277-1.103s.569-1.103 1.277-1.103zm-13.235 0c.708 0 1.277.491 1.277 1.103s-.569 1.103-1.277 1.103h-7.004c-.708 0-1.277-.491-1.277-1.103s.574-1.103 1.277-1.103zM18.572 27.206a2.756 2.756 0 012.751 2.75v7.73a2.76 2.76 0 01-2.751 2.755h-7.733a2.76 2.76 0 01-2.751-2.755v-7.73a2.756 2.756 0 012.751-2.75zm0 2.424h-7.733a.328.328 0 00-.327.327v7.73c0 .185.147.331.327.331h7.733c.18 0 .327-.151.327-.331v-7.73a.328.328 0 00-.327-.327zm36.778 4.929c.703 0 1.267.491 1.267 1.103s-.564 1.103-1.267 1.103H35.09c-.703 0-1.267-.491-1.267-1.103s.564-1.103 1.267-1.103zm0-7.353c.703 0 1.267.491 1.267 1.103s-.564 1.103-1.267 1.103H35.09c-.703 0-1.267-.495-1.267-1.103s.564-1.103 1.267-1.103z"/></svg>