<svg xmlns="http://www.w3.org/2000/svg" width="358" height="323"><g fill="#1a2b52"><path d="M71.037 0a4.54 4.54 0 00-4.54 4.545v144.879H4.54c-2.5 0-4.54 2.042-4.54 4.545V274.67a4.544 4.544 0 004.54 4.544h41.638l9.079 40.263-.018.018a4.563 4.563 0 003.281 3.355 4.52 4.52 0 004.486-1.314l38.818-42.322h75.863a4.544 4.544 0 004.54-4.544v-68.702h14.169l63.556 69.947h-.018a4.591 4.591 0 004.504 1.314 4.51 4.51 0 003.263-3.373l15.711-67.888h70.048a4.544 4.544 0 004.54-4.544V4.549a4.544 4.544 0 00-4.54-4.545L71.037 0zm102.108 270.125h-73.54c-1.295.018-2.5.55-3.369 1.509L62.33 308.986l-8.175-35.345a4.53 4.53 0 00-4.54-3.551H8.758V158.514h57.74v42.855a4.544 4.544 0 004.54 4.544h102.107v64.211zm175.773-73.246h-69.177c-2.163-.053-4.079 1.42-4.54 3.533l-14.488 62.953-59.016-65.029a4.49 4.49 0 00-3.352-1.509H75.578V9.091h273.34v187.788z"/><path d="M157.5 87c7.456 0 13.5 6.044 13.5 13.5s-6.044 13.5-13.5 13.5-13.5-6.044-13.5-13.5S150.044 87 157.5 87zm55 0c7.456 0 13.5 6.044 13.5 13.5s-6.044 13.5-13.5 13.5-13.5-6.044-13.5-13.5S205.044 87 212.5 87zm55 0c7.456 0 13.5 6.044 13.5 13.5s-6.044 13.5-13.5 13.5-13.5-6.044-13.5-13.5S260.044 87 267.5 87z" opacity=".3"/></g><g fill="#fff"><path d="M358 91.144v110.279a4.544 4.544 0 01-4.54 4.544h-70.048l-15.711 67.888a4.51 4.51 0 01-3.263 3.373 4.59 4.59 0 01-4.504-1.314h.018l-63.556-69.947h-14.169v68.702a4.544 4.544 0 01-4.54 4.544h-75.863l-38.818 42.322a4.521 4.521 0 01-4.486 1.314 4.565 4.565 0 01-3.281-3.355l.018-.018-9.079-40.263H4.54A4.542 4.542 0 010 274.67V153.968a4.551 4.551 0 014.54-4.545h61.958l-.001-37.756 9.081 2.309v82.849h122.767a4.49 4.49 0 013.352 1.509l59.016 65.029 14.488-62.953c.461-2.113 2.376-3.586 4.54-3.533h69.177l-.001-101.286L358 91.144zm-291.501 67.37H8.758V270.09h41.073a4.53 4.53 0 014.324 3.551l8.175 35.345 33.906-37.352a4.593 4.593 0 013.369-1.509h73.54v-64.211H71.038a4.544 4.544 0 01-4.54-4.544v-42.855z"/><path d="M58 211a8 8 0 110 16 8 8 0 110-16zm32.889 0a8 8 0 110 16 8 8 0 110-16zm32.889 0a8 8 0 110 16 8 8 0 110-16z" opacity=".25"/></g></svg>