<svg xmlns="http://www.w3.org/2000/svg" width="100" height="100"><path fill="#e47c2b" d="M51.884 90v-4.761a12.959 12.959 0 003.12-.767 8.24 8.24 0 003.725-2.769 6.62 6.62 0 001.269-4.065 6.695 6.695 0 00-.852-3.398 6.81 6.81 0 00-2.157-2.196c-.902-.562-1.878-1-2.9-1.293l-2.094-.581-2.488-.581h-.002a23.473 23.473 0 01-3.48-1.012 4.214 4.214 0 01-1.711-1.191 2.54 2.54 0 01-.539-1.742v-.175.002a2.61 2.61 0 01.58-1.488 4.526 4.526 0 011.996-1.336 10.574 10.574 0 013.682-.522c.931 0 1.858.122 2.755.365a5.684 5.684 0 011.792.855 3.53 3.53 0 01.929.95l.963 1.452 2.9-1.921-.963-1.452a6.995 6.995 0 00-1.826-1.88 9.145 9.145 0 00-2.866-1.359 12.93 12.93 0 00-1.833-.372V54h-3.48v4.709a14.02 14.02 0 00-3.156.651 8.03 8.03 0 00-3.537 2.375l-.045.059h-.002a6.129 6.129 0 00-1.38 3.652 6.04 6.04 0 001.264 4.065l.059.07v-.002a7.7 7.7 0 003.179 2.248c1.303.49 2.644.878 4.008 1.161l2.32.581 1.985.522-.002.002a7.884 7.884 0 012.007.894c.403.252.75.592 1.008.993.283.499.424 1.064.412 1.638v.082-.002a3.15 3.15 0 01-.58 1.928 4.76 4.76 0 01-2.168 1.592 9.93 9.93 0 01-3.8.655h-.918a9.3 9.3 0 01-3.48-.86 4.91 4.91 0 01-1.74-1.522l-1.008-1.418-2.83 2.02 1.008 1.418a8.475 8.475 0 003.045 2.624 12.82 12.82 0 004.384 1.161V90h3.446z"/><path d="M8.333 0A8.25 8.25 0 000 8.333v50a8.25 8.25 0 008.333 8.333h13.834a25.463 25.463 0 00-.5 5C21.667 87.334 34.334 100 50 100s28.333-12.667 28.333-28.333c0-1.667-.167-3.333-.5-5h13.834A8.25 8.25 0 00100 58.334v-50A8.25 8.25 0 0091.667 0H8.333zM50 96.667a25.001 25.001 0 110-50.001 25.001 25.001 0 110 50.001zM11.834 53.334l1.333-16c.167-.667.5-1.333 1.167-1.5l6.5-2.167 7.5 15 7.5-15 6.5 2.167c.667.333 1.167.833 1.167 1.5l.5 6.667c-6.333 1.333-11.834 4.667-15.667 9.5h-16.5v-.167zm84.834 5c0 2.833-2.167 5.001-5 5.001h-14.5C73.667 51.666 62.833 43.334 50 43.334c-.833 0-1.833 0-2.667.167l-.5-6.5c-.167-2-1.5-3.667-3.333-4.333L34.167 29.5l-5.833 11.667L22.5 29.5l-9.333 3.167A5.068 5.068 0 009.833 37L8.167 56.667H26c-1.333 2-2.333 4.333-3 6.667H8.334c-2.833 0-5-2.167-5-5v-50c0-2.833 2.167-5 5-5h83.334c2.833 0 5 2.167 5 5v50zM90 34v3H52v-3h38zm-5-11v3H52v-3h33zm5-11v3H52v-3h38zM28.5 30C22.093 30 17 24.907 17 18.5S22.093 7 28.5 7 40 12.093 40 18.5 34.907 30 28.5 30zm0-19.713a8.13 8.13 0 00-8.214 8.214 8.13 8.13 0 008.214 8.214 8.13 8.13 0 008.214-8.214 8.13 8.13 0 00-8.214-8.214z" fill="#2f4b9f"/></svg>