<svg xmlns="http://www.w3.org/2000/svg" width="351" height="692" xmlns:v="https://vecta.io/nano"><g transform="matrix(-1 0 0 1 351 0)"><path fill="#141c35" d="M.014 419.596c-.025 10.213 4.011 20 11.232 27.176l79.02 79.091V602h20.057v-80.299c0-2.66-1.053-5.219-2.933-7.102l-81.96-82.033c-7.145-7.152-7.145-18.77 0-25.947 7.17-7.152 18.778-7.152 25.924 0l61.9 61.955 14.19-14.203-81.96-82.033c-7.145-7.152-7.145-18.77 0-25.947 7.17-7.152 18.778-7.152 25.924 0l81.96 82.033 14.19-14.203L65.54 312.114c-7.145-7.152-7.145-18.77 0-25.947 7.17-7.152 18.778-7.152 25.924 0l21.786 21.806.251-.251 7.045 35.256a10.02 10.02 0 0 0 9.827 8.08c.025 22.157 17.976 40.124 40.113 40.15H210.6a40.1 40.1 0 0 0 5.491-.376l14.566 14.579v27.678c-.05 20.853 8.223 40.852 22.99 55.557l14.19-14.203a58.07 58.07 0 0 1-17.124-41.354v-31.843c0-2.66-1.053-5.219-2.933-7.102l-41.843-41.881c-7.145-7.152-7.145-18.77 0-25.947 7.17-7.152 18.778-7.152 25.924 0l93.192 93.275h.025c3.761 3.764 5.892 8.883 5.867 14.203v257.299h20.058V433.794c.024-10.665-4.213-20.878-11.759-28.381l-75.991-76.059 17.324-86.749h.025a10.04 10.04 0 0 0-1.103-6.901 110.46 110.46 0 0 0 20.784-76.509c-2.758-27.201-15.519-52.395-35.801-70.74C244.222 70.138 217.873 60 190.542 60a110.23 110.23 0 0 0-73.937 28.456c-20.283 18.344-33.043 43.537-35.801 70.74-2.783 27.201 4.638 54.478 20.784 76.509-1.178 2.108-1.579 4.542-1.103 6.901l6.042 30.212-.852-.853h-.025c-14.266-14.278-37.18-15.056-52.398-1.757s-17.525 36.109-5.29 52.219c-12.209 3.463-21.912 12.748-25.924 24.792-4.036 12.045-1.83 25.319 5.867 35.432C11.408 387.344.025 402.425 0 419.59l.014.006zm170.479-48.456c-11.082-.025-20.032-8.983-20.057-20.075h31.916c1.855 5.822 5.089 11.092 9.401 15.407l4.663 4.667h-25.923zm75.741-58.844l-.175-.176c-9.903-9.912-24.419-13.626-37.882-9.711-13.463 3.94-23.717 14.88-26.726 28.581h-42.846l-16.045-80.299h135.988l-12.313 61.604zM164.299 158.45l21.761 10.89a10.08 10.08 0 0 0 8.975 0l21.761-10.89-14.416 72.166h-23.667l-14.415-72.166zm-64.007 11.945c0-29.736 14.617-57.564 39.061-74.402 24.469-16.863 55.658-20.602 83.41-9.987 27.728 10.589 48.487 34.202 55.482 63.085 7.02 28.883-.627 59.371-20.433 81.526h-34.974l17.65-88.38c.752-3.739-.702-7.603-3.736-9.937a10.04 10.04 0 0 0-10.58-1.004l-35.626 17.841-35.626-17.841c-3.435-1.706-7.521-1.33-10.58 1.004a10.06 10.06 0 0 0-3.736 9.937l17.65 88.38h-34.974c-14.842-16.536-23.04-37.992-22.99-60.224v.003z"/><path fill="#e47c2b" d="M60 150v20H29v-20h31zm291 0v20h-31v-20h31zM83 40l21 21-14 14-21-21 14-14zm214 0l14 14-21 21-14-14 21-21zM201 0v31h-20V0h20z"/></g></svg>