<svg xmlns="http://www.w3.org/2000/svg" width="86" height="100"><path fill="#2f4b9f" d="M10.056 0h63.707c5.436 0 9.873 4.461 10.016 9.894l.004.277v10.18a1.215 1.215 0 01-1.062 1.234l-.124.008H66.105l-.004 36.352.397.027a20.93 20.93 0 0116.939 10.902l.187.352c3.434 6.617 3.13 14.559-.809 20.887S71.9 100.199 64.476 99.992a20.926 20.926 0 01-17.572-10.531l-.198-.348H34.134l-32.649-.008h-.28a1.214 1.214 0 01-.855-.363 1.22 1.22 0 01-.342-.734L0 87.871.424 9.618c0-5.184 4.172-9.469 9.36-9.613L10.056 0h63.707-63.707zM50.03 68.065l-.218.312-.031.039a18.69 18.69 0 00-3.13 12.816 18.64 18.64 0 006.117 11.68 18.47 18.47 0 0012.284 4.668c6.486 0 12.505-3.406 15.862-8.98s3.566-12.508.556-18.281-8.812-9.543-15.286-9.937a18.51 18.51 0 00-16.154 7.684h-.001zM67.214 2.421H10.06c-3.893 0-7.066 3.09-7.221 6.961l-.004.242-.416 77.065h1.19l39.317.027h2.644a20.83 20.83 0 01-1.466-7.707c0-.496.016-.984.051-1.453l.039-.461H9.243a1.204 1.204 0 01-1.205-1.211c0-.629.471-1.141 1.081-1.203l.124-.008h35.32c.393-1.863 1.023-3.727 1.867-5.269l.214-.383h-37.4a1.204 1.204 0 01-1.205-1.211c0-.625.471-1.141 1.081-1.203l.124-.008H48.18a18.96 18.96 0 015.778-5.398l.432-.25H9.242a1.206 1.206 0 01-1.205-1.211c0-.629.471-1.144 1.081-1.207l.124-.004h47.616a1.17 1.17 0 011.104.676 20.797 20.797 0 015.145-1.191l.583-.051V10.206c0-3.074 1.365-5.766 3.524-7.785zM56.859 50.456c.669 0 1.205.539 1.205 1.211a1.21 1.21 0 01-1.081 1.203l-.124.008H9.243a1.206 1.206 0 01-1.205-1.211 1.21 1.21 0 011.081-1.207l.124-.004h47.616zM32.863 11.769a15.49 15.49 0 0110.973 4.566 15.63 15.63 0 014.55 11.027 15.62 15.62 0 01-4.55 11.023 15.49 15.49 0 01-10.973 4.566 15.503 15.503 0 01-10.97-4.57 15.65 15.65 0 01-4.554-11.02 15.63 15.63 0 014.55-11.027 15.49 15.49 0 0110.973-4.566l.001.001zm0 2.422c-7.237.012-13.104 5.902-13.112 13.172 0 5.324 3.192 10.129 8.092 12.168s10.542.91 14.29-2.855a13.22 13.22 0 002.839-14.355 13.105 13.105 0 00-12.109-8.129zm40.896-11.77h-.043c-4.122.199-7.474 3.422-7.606 7.531l-.004.25v8.973h15.267v-9c0-4.223-3.41-7.754-7.614-7.754z"/><path fill="#e47c2b" d="M71.927 73.315a1.2 1.2 0 01.855.352 1.211 1.211 0 010 1.714l-8.815 8.848c-.229.219-.537.34-.852.332a1.19 1.19 0 01-.855-.336l-4.942-4.996c-.463-.477-.459-1.238.016-1.707s1.229-.469 1.699 0l4.087 4.152 7.96-8a1.2 1.2 0 01.848-.359zm-39.375-56.16c.626 0 1.139.473 1.202 1.086l.004.125v.895a4.94 4.94 0 014.021 4.852 1.21 1.21 0 01-1.205 1.211 1.204 1.204 0 01-1.205-1.211 2.51 2.51 0 00-1.548-2.32 2.496 2.496 0 00-2.726.543 2.52 2.52 0 00-.541 2.738 2.499 2.499 0 002.31 1.555 4.916 4.916 0 014.868 4.273c.319 2.375-1.104 4.629-3.356 5.355l-.214.062v1.219c0 .672-.541 1.211-1.205 1.211a1.21 1.21 0 01-1.202-1.086l-.004-.125v-1.172a4.935 4.935 0 01-3.803-4.805c0-.668.544-1.211 1.205-1.211.669 0 1.205.543 1.205 1.211a2.51 2.51 0 002.504 2.512c.665.004 1.31-.258 1.785-.727s.739-1.117.739-1.785-.264-1.312-.739-1.785a2.49 2.49 0 00-1.785-.727 4.92 4.92 0 01-4.853-4.164 4.944 4.944 0 013.126-5.394l.21-.074v-1.051c0-.672.541-1.211 1.205-1.211z"/></svg>