<svg xmlns="http://www.w3.org/2000/svg" width="159" height="100"><path fill="#2f4b9f" d="M5.913 32.391H39.13V5.911A5.93 5.93 0 0145.042 0h108.045A5.93 5.93 0 01159 5.911v55.768a5.94 5.94 0 01-5.913 5.911H119.87v26.48c0 3.253-2.658 5.93-5.913 5.93H5.913C2.677 100 0 97.324 0 94.07V38.321c0-3.253 2.658-5.93 5.913-5.93zm36.005 0h72.035c3.255 0 5.913 2.676 5.913 5.93v26.481h33.217a3.15 3.15 0 003.124-3.123V21.378H41.918v11.014zm114.287-13.802v-4.843H41.918v4.843h114.287zm0-7.637V5.911a3.15 3.15 0 00-3.124-3.123H45.037a3.134 3.134 0 00-3.124 3.123v5.042h114.293zM2.79 43.344h114.287v-5.023a3.134 3.134 0 00-3.124-3.123H5.908a3.134 3.134 0 00-3.124 3.123v5.023h.006zm114.287 10.449H2.79V94.07a3.134 3.134 0 003.124 3.123h108.045a3.134 3.134 0 003.124-3.123V53.794h-.006zm0-7.656H2.79v4.868h114.287v-4.868z"/><path fill="#e47c2b" d="M110.8 66.604v25H83.781v-25H110.8zm-3.002 2.999H86.783v19h21.015v-19zm43.03-34.999v25h-27.019v-25h27.019zm-3.002 2.999h-21.015v19h21.015v-19z"/><path fill="#2f4b9f" d="M48.923 88.889v3.333H12.231v-3.333h36.692zm-13.343-20v8.889H12.23v-8.889h23.35zm-2.977 3.084H15.227v2.715h17.377v-2.715z"/></svg>