<svg xmlns="http://www.w3.org/2000/svg" width="465" height="523"><path fill="#e6eaf3" d="M350.11 0l-456.768.007a7.33 7.33 0 00-5.191 2.156A7.36 7.36 0 00-114 7.365v318.778a7.36 7.36 0 002.151 5.203 7.33 7.33 0 005.191 2.156H6.631l25.41 109.924c.602 2.673 2.639 4.772 5.277 5.462s5.421-.144 7.285-2.127h-.029l102.79-113.257h22.916v111.241a7.36 7.36 0 002.151 5.203 7.33 7.33 0 005.191 2.156h122.695l62.781 68.528a7.308 7.308 0 007.256 2.127 7.385 7.385 0 005.306-5.433l-.029-.029 14.684-65.193h67.341a7.33 7.33 0 005.191-2.156 7.36 7.36 0 002.151-5.203v-195.44c0-4.053-3.298-7.359-7.342-7.359H357.45V7.359A7.346 7.346 0 00350.108 0zm7.341 256.665h93.385v180.663h-66.079a7.33 7.33 0 00-7.342 5.749l-13.222 57.231-54.837-60.48c-1.405-1.552-3.356-2.415-5.449-2.443H184.97V333.414h165.14a7.33 7.33 0 005.191-2.156 7.36 7.36 0 002.151-5.203v-69.39zM-99.312 14.72h442.078V318.7H144.212a7.26 7.26 0 00-5.421 2.443L43.343 426.438 19.912 324.506c-.746-3.421-3.843-5.806-7.342-5.72H-99.312V14.72zm470.508 325.311a12.95 12.95 0 100 25.907 12.95 12.95 0 100-25.907zm-53.192 0a12.95 12.95 0 100 25.907 12.95 12.95 0 100-25.907zm-53.192 0a12.95 12.95 0 100 25.907 12.95 12.95 0 100-25.907zm-54.54-199.161c-12.058 0-21.834 9.787-21.834 21.859s9.775 21.859 21.834 21.859 21.834-9.787 21.834-21.859-9.775-21.859-21.834-21.859zm-88.953 0c-12.058 0-21.834 9.787-21.834 21.859s9.775 21.859 21.834 21.859 21.834-9.787 21.834-21.859-9.775-21.859-21.834-21.859zm-88.953 0c-12.058 0-21.834 9.787-21.834 21.859s9.775 21.859 21.834 21.859S54.2 174.801 54.2 162.729s-9.775-21.859-21.834-21.859z"/></svg>