<svg xmlns="http://www.w3.org/2000/svg" width="100" height="100" xmlns:v="https://vecta.io/nano"><path fill="#e47c2b" d="M51.884 90v-4.761c1.067-.125 2.116-.383 3.12-.767a8.24 8.24 0 0 0 3.725-2.769 6.62 6.62 0 0 0 1.269-4.065c.023-1.189-.272-2.361-.852-3.398a6.81 6.81 0 0 0-2.157-2.196c-.902-.562-1.878-1-2.9-1.293l-2.094-.581-2.488-.581h-.002c-1.183-.247-2.347-.585-3.48-1.012-.659-.247-1.248-.655-1.711-1.191a2.54 2.54 0 0 1-.539-1.742v-.175.002a2.61 2.61 0 0 1 .58-1.488c.532-.617 1.221-1.077 1.996-1.336 1.187-.39 2.433-.567 3.682-.522.931 0 1.858.122 2.755.365.644.179 1.251.467 1.792.855a3.53 3.53 0 0 1 .929.95l.963 1.452 2.9-1.921-.963-1.452c-.485-.737-1.106-1.375-1.826-1.88-.87-.617-1.84-1.077-2.866-1.359a12.93 12.93 0 0 0-1.833-.372V54h-3.48v4.709a14.02 14.02 0 0 0-3.156.651c-1.371.458-2.592 1.279-3.537 2.375l-.045.059h-.002c-.845 1.032-1.33 2.316-1.38 3.652-.086 1.463.363 2.908 1.264 4.065l.059.07v-.002a7.7 7.7 0 0 0 3.179 2.248c1.303.49 2.644.878 4.008 1.161l2.32.581 1.985.522-.002.002c.707.202 1.382.504 2.007.894.403.252.75.592 1.008.993.283.499.424 1.064.412 1.638v.082-.002a3.15 3.15 0 0 1-.58 1.928 4.76 4.76 0 0 1-2.168 1.592 9.93 9.93 0 0 1-3.8.655h-.918c-1.203-.059-2.386-.349-3.48-.86a4.91 4.91 0 0 1-1.74-1.522l-1.008-1.418L40 80.093l1.008 1.418c.791 1.107 1.835 2.007 3.045 2.624a12.82 12.82 0 0 0 4.384 1.161V90h3.446z"/><path d="M8.333 0A8.25 8.25 0 0 0 0 8.333v50a8.25 8.25 0 0 0 8.333 8.333h13.834c-.333 1.667-.5 3.333-.5 5C21.667 87.334 34.334 100 50 100s28.333-12.667 28.333-28.333c0-1.667-.167-3.333-.5-5h13.834A8.25 8.25 0 0 0 100 58.334v-50A8.25 8.25 0 0 0 91.667 0H8.333zM50 96.667a25.001 25.001 0 1 1 0-50.001 25.001 25.001 0 1 1 0 50.001zM11.834 53.334l1.333-16c.167-.667.5-1.333 1.167-1.5l6.5-2.167 7.5 15 7.5-15 6.5 2.167c.667.333 1.167.833 1.167 1.5l.5 6.667c-6.333 1.333-11.834 4.667-15.667 9.5h-16.5v-.167zm84.834 5c0 2.833-2.167 5.001-5 5.001h-14.5C73.667 51.666 62.833 43.334 50 43.334c-.833 0-1.833 0-2.667.167l-.5-6.5c-.167-2-1.5-3.667-3.333-4.333L34.167 29.5l-5.833 11.667L22.5 29.5l-9.333 3.167C11.333 33.333 10 35 9.833 37L8.167 56.667H26c-1.333 2-2.333 4.333-3 6.667H8.334c-2.833 0-5-2.167-5-5v-50c0-2.833 2.167-5 5-5h83.334c2.833 0 5 2.167 5 5v50zM90 34v3H52v-3h38zm-5-11v3H52v-3h33zm5-11v3H52v-3h38zM28.5 30C22.093 30 17 24.907 17 18.5S22.093 7 28.5 7 40 12.093 40 18.5 34.907 30 28.5 30zm0-19.713a8.13 8.13 0 0 0-8.214 8.214 8.13 8.13 0 0 0 8.214 8.214 8.13 8.13 0 0 0 8.214-8.214 8.13 8.13 0 0 0-8.214-8.214h0z" fill="#2f4b9f"/></svg>