<svg xmlns="http://www.w3.org/2000/svg" width="110" height="50" xmlns:v="https://vecta.io/nano"><path fill="#e6eaf3" d="M50.403 41.964c2.286 0 4.15 1.802 4.15 4.013 0 2.22-1.859 4.022-4.15 4.022-1.974 0-3.63-1.344-4.048-3.132h0H24.3C23.881 48.661 22.225 50 20.252 50c-2.291 0-4.154-1.806-4.154-4.022s1.863-4.013 4.154-4.013c1.974 0 3.63 1.339 4.048 3.124h0 22.055c.423-1.784 2.075-3.124 4.048-3.124zm16.225-.893a4.03 4.03 0 0 1 4.022 4.022c0 2.211-1.801 4.013-4.022 4.013s-4.027-1.798-4.027-4.013a4.03 4.03 0 0 1 4.027-4.022zm39.214-25.893A4.17 4.17 0 0 1 110 19.355c0 2.304-1.867 4.181-4.162 4.181-1.977 0-3.637-1.395-4.056-3.254h0-20.308L69.669 34.536a.92.92 0 0 1-.71.334h0-20.446c-.318 1.993-2.037 3.523-4.107 3.523-2.295 0-4.162-1.873-4.162-4.181s1.867-4.181 4.162-4.181c1.881 0 3.475 1.265 3.987 2.99h0 20.133l11.749-14.184c.055-.079.12-.144.189-.199.051-.037.097-.07.143-.093l.028-.014.124-.051.051-.014c.037-.009.069-.014.106-.019l.088-.009c.009 0 .023-.005.037-.005h0 20.746c.419-1.859 2.079-3.254 4.056-3.254h0zm-76.079 12.5c2.325 0 4.22 1.802 4.22 4.013 0 2.22-1.89 4.022-4.22 4.022-2.007 0-3.687-1.344-4.113-3.132h0H.936c-.515 0-.936-.4-.936-.89s.421-.89.936-.89h0H25.65c.426-1.784 2.106-3.124 4.113-3.124zM4.163 0c2.07 0 3.785 1.529 4.103 3.522h0 20.449c.277 0 .535.12.71.334h0L41.23 18.107h20.311c.42-1.858 2.079-3.253 4.057-3.253 2.291 0 4.158 1.872 4.158 4.18s-1.867 4.18-4.158 4.18c-1.978 0-3.637-1.395-4.057-3.253h0-20.749a.94.94 0 0 1-.378-.083c-.009-.005-.014-.009-.023-.014-.055-.023-.101-.056-.148-.088-.009-.009-.018-.014-.028-.023a.94.94 0 0 1-.12-.116l-.009-.009L28.281 5.376H8.146C7.634 7.1 6.044 8.365 4.163 8.365h0A4.18 4.18 0 0 1 0 4.18C0 1.877 1.867 0 4.163 0zM25.49 15.179c2.216 0 4.022 1.8 4.022 4.018s-1.801 4.018-4.022 4.018-4.027-1.8-4.027-4.018a4.03 4.03 0 0 1 4.027-4.018zm22.512-9.821c1.988 0 3.657 1.336 4.079 3.127h0 25.691c.51 0 .927.401.927.891s-.417.891-.927.891h0-25.691c-.426 1.786-2.09 3.127-4.079 3.127-2.304 0-4.181-1.8-4.181-4.018s1.873-4.018 4.181-4.018z"/></svg>