<svg xmlns="http://www.w3.org/2000/svg" width="100" height="100" xmlns:v="https://vecta.io/nano"><path fill="#2f4b9f" d="M81.244 22.119l.004-.246a21.86 21.86 0 0 0-8.859-17.586C66.811.162 59.612-1.072 52.98.959s-11.906 7.09-14.215 13.629a18.47 18.47 0 0 0-4.39-.527c-3.629.016-7.176 1.078-10.211 3.063a18.84 18.84 0 0 0-6.918 8.113 20.31 20.31 0 0 0-15.46 11.746c-2.824 6.285-2.273 13.574 1.473 19.363a20.31 20.31 0 0 0 17.054 9.277 1.56 1.56 0 1 0 0-3.125A17.17 17.17 0 0 1 4.224 39.28a17.17 17.17 0 0 1 11.895-10.617c-.535 2.367-.617 4.816-.242 7.219a1.56 1.56 0 0 0 1.785 1.301 1.54 1.54 0 0 0 1.019-.621 1.55 1.55 0 0 0 .281-1.164 15.97 15.97 0 0 1 .824-8.141c.004-.012.012-.02.016-.027 1.141-2.945 3.137-5.481 5.738-7.27s5.68-2.758 8.836-2.773c1.211 0 2.414.145 3.59.43-.516 2.566-.574 5.203-.176 7.793.133.852.934 1.438 1.785 1.305s1.437-.934 1.305-1.785a19.09 19.09 0 0 1 .43-8.004v-.012c1.613-5.887 5.992-10.621 11.734-12.688a18.75 18.75 0 0 1 17.124 2.309 18.74 18.74 0 0 1 7.957 15.34v.039a25.52 25.52 0 0 0-14 4.422c-.348.227-.59.582-.672.988a1.56 1.56 0 0 0 .223 1.176c.473.719 1.441.922 2.164.449 15.265-10.031 31.034.703 31.034 14.801-.016 4.719-1.805 9.258-5.012 12.719s-7.594 5.594-12.293 5.973a1.57 1.57 0 0 0-1.457 1.68 1.58 1.58 0 0 0 .547 1.07 1.57 1.57 0 0 0 1.144.367 21.88 21.88 0 0 0 17.304-10.93c3.601-6.285 3.855-13.945.676-20.457s-9.367-11.023-16.538-12.051h0zm-6.246 27.879v13.82c.023 7.77-2.293 15.367-6.648 21.801a38.63 38.63 0 0 1-17.772 14.266 1.52 1.52 0 0 1-1.156 0A38.62 38.62 0 0 1 31.649 85.62c-4.355-6.434-6.672-14.031-6.648-21.801v-13.82a1.56 1.56 0 0 1 1.067-1.481l23.437-7.813a1.54 1.54 0 0 1 .992 0l23.437 7.813A1.56 1.56 0 0 1 75 49.999h-.002zm-3.125 1.125l-21.874-7.293-21.874 7.293v12.695a35.54 35.54 0 0 0 5.937 19.785A35.55 35.55 0 0 0 50 96.749a35.55 35.55 0 0 0 15.937-13.145 35.54 35.54 0 0 0 5.937-19.785l-.001-12.695zm-21.378-5.477l18.749 6.25a1.56 1.56 0 0 1 1.066 1.481v10.441a33.82 33.82 0 0 1-19.648 30.925 1.58 1.58 0 0 1-1.328 0c-5.898-2.723-10.891-7.086-14.375-12.57a33.82 33.82 0 0 1-5.273-18.355V53.377a1.56 1.56 0 0 1 1.066-1.481l18.749-6.25a1.54 1.54 0 0 1 .992 0h0zm-.496 3.125l-17.187 5.731v9.316a30.72 30.72 0 0 0 4.594 16.363c3.039 4.914 7.406 8.871 12.594 11.414 5.187-2.543 9.554-6.5 12.594-11.414a30.72 30.72 0 0 0 4.594-16.363v-9.316l-17.187-5.731z"/><path fill="#e47c2b" d="M48.436 72.706l11.395-11.395a1.55 1.55 0 0 1 1.109-.473 1.56 1.56 0 0 1 1.574 1.574c-.004.418-.172.816-.473 1.109l-12.5 12.5c-.293.293-.691.457-1.105.457s-.812-.164-1.105-.457l-6.25-6.25a1.58 1.58 0 0 1-.469-1.109 1.58 1.58 0 0 1 1.57-1.57 1.58 1.58 0 0 1 1.109.469l5.144 5.145z"/></svg>