<svg xmlns="http://www.w3.org/2000/svg" width="24" height="25" viewBox="0 0 24 25">
  <path fill="#1F3161" fill-rule="evenodd" d="M19.4902027,19.2145171 L16.2614011,19.2145171 L16.2614011,13.4576439 C16.2614011,12.1194172 15.7939221,11.2059557 14.625434,11.2059557 C13.7333295,11.2059557 13.2024777,11.8220956 12.9686684,12.4167389 C12.8837991,12.6290517 12.8623026,12.9265129 12.8623026,13.2241138 L12.8623026,19.2145171 L9.63350103,19.2145171 L9.63350103,12.140495 C9.63350103,10.8448425 9.59106639,9.76150289 9.54863175,8.8266845 L12.3525286,8.8266845 L12.5014686,10.2712769 L12.5651205,10.2712769 C12.9898857,9.59134557 14.0309303,8.59287521 15.7728444,8.59287521 C17.8972286,8.59287521 19.4902027,10.0163899 19.4902027,13.0753133 L19.4902027,19.2145171 Z M6.06522232,7.55210981 C5.04581382,7.55210981 4.38723936,6.82960421 4.38723936,5.93763922 C4.38723936,5.02431733 5.06689156,4.32330823 6.10765696,4.32330823 C7.14856196,4.32330823 7.7859191,5.02431733 7.80713642,5.93763922 C7.80713642,6.82960421 7.14856196,7.55210981 6.06522232,7.55210981 L6.06522232,7.55210981 Z M4.47210865,19.2145171 L7.70104982,19.2145171 L7.70104982,8.8266845 L4.47210865,8.8266845 L4.47210865,19.2145171 Z M21.5803879,1.70530257e-14 L2.41961206,1.70530257e-14 C1.08306046,1.70530257e-14 -1.70530257e-14,1.08682933 -1.70530257e-14,2.42770815 L-1.70530257e-14,21.8563527 C-1.70530257e-14,23.1970919 1.08306046,24.2839212 2.41961206,24.2839212 L21.5803879,24.2839212 C22.9169395,24.2839212 24,23.1970919 24,21.8563527 L24,2.42770815 C24,1.08682933 22.9169395,1.70530257e-14 21.5803879,1.70530257e-14 L21.5803879,1.70530257e-14 Z" transform="translate(0 .5)"/>
</svg>
