<svg xmlns="http://www.w3.org/2000/svg" width="24" height="21" viewBox="0 0 24 21">
  <path fill="#1F3161" fill-rule="evenodd" d="M7.547904,22.2 C16.604832,22.2 21.557664,14.5830936 21.557664,7.97831852 C21.557664,7.76187875 21.553344,7.54641349 21.543648,7.33211765 C22.504992,6.62666627 23.340672,5.74638691 24,4.74409828 C23.11776,5.14189528 22.168224,5.4100818 21.17232,5.53101911 C22.188864,4.91229956 22.96944,3.93310693 23.337504,2.76602782 C22.385856,3.33855536 21.332544,3.75506305 20.210976,3.97920149 C19.312416,3.00770753 18.032736,2.4 16.616736,2.4 C13.897248,2.4 11.692032,4.63855831 11.692032,7.39809231 C11.692032,7.79043203 11.735328,8.17175974 11.819808,8.53778756 C7.727616,8.328949 4.09872,6.33986652 1.670496,3.31545935 C1.247232,4.05394679 1.003584,4.91229956 1.003584,5.82775891 C1.003584,7.56190828 1.87296,9.09277382 3.194784,9.98835307 C2.387136,9.96311313 1.628256,9.73780527 0.964608,9.36300682 C0.963552,9.38386144 0.963552,9.40481351 0.963552,9.4267401 C0.963552,11.8478251 2.661024,13.8687742 4.913952,14.3270886 C4.500384,14.4413017 4.065216,14.5029885 3.615936,14.5029885 C3.298656,14.5029885 2.990112,14.4710244 2.690304,14.4127484 C3.317088,16.398615 5.134752,17.8437232 7.29024,17.884458 C5.604576,19.2251956 3.481632,20.024103 1.174656,20.024103 C0.777312,20.024103 0.38544,20.001007 0,19.954815 C2.179296,21.3725393 4.766688,22.2 7.547904,22.2" transform="translate(0 -1.5)"/>
</svg>
