<svg xmlns="http://www.w3.org/2000/svg" xmlns:xlink="http://www.w3.org/1999/xlink" width="162" height="52"><defs><path id="a" d="M0 52h161.2V0H0z"/></defs><g fill="none" fill-rule="evenodd"><path fill="#E47C2B" d="M18.063 0l-7.571 3.793v-.017L0 9.107V52l10.492-5.359V35.088l7.571-3.824V18.498l-7.571 3.807v-5.13l7.571-3.888z"/><path fill="#1F3061" d="M18.063 0v13.287l14.492 6.964V6.869z"/><path fill="#2F4B9F" d="M28.444 23.139l-10.381-4.641v12.766l10.381 4.658z"/><path fill="#1F3061" d="M43.563 40.005V12.551h14.715v2.673H46.659V25.4h10.372v2.674H46.659v11.931zm18.333.001h2.895V19.654h-2.895v20.352zm-.12-26.298h3.135v-3.352h-3.136v3.352zm8.322 26.297V19.654h2.572l.161 2.913h.202a5.19 5.19 0 011.105-1.716c.469-.479 1.099-.851 1.89-1.117.79-.266 1.789-.4 2.995-.4 1.34 0 2.419.154 3.236.46.818.306 1.441.777 1.87 1.416.429.639.716 1.45.864 2.434.147.985.222 2.169.222 3.552v12.81h-2.936V28.153c0-1.384-.047-2.487-.14-3.312-.095-.825-.296-1.443-.604-1.856-.308-.412-.757-.692-1.346-.838-.59-.146-1.367-.22-2.332-.22-1.18 0-2.098.18-2.754.539-.657.36-1.133.865-1.428 1.516-.294.653-.482 1.437-.562 2.355-.08.918-.12 1.962-.12 3.132v10.535h-2.895zM96.27 37.89c.724 0 1.373-.046 1.95-.14a4.031 4.031 0 001.528-.558c.442-.279.77-.672.984-1.177a7.821 7.821 0 00.584-1.896c.12-.678.18-1.47.18-2.374v-1.237h-5.87c-.964 0-1.702.094-2.211.28a1.678 1.678 0 00-1.045 1.057c-.188.519-.282 1.31-.282 2.375 0 .984.108 1.742.323 2.274.213.532.623.898 1.226 1.097.602.2 1.48.3 2.633.3m-1.005 2.434c-1.367 0-2.5-.173-3.397-.52a3.681 3.681 0 01-2.01-1.795c-.443-.851-.664-2.048-.664-3.591 0-1.543.167-2.754.502-3.631.335-.878.918-1.497 1.75-1.856.83-.36 1.969-.539 3.417-.539.322 0 .737.007 1.246.02a644.885 644.885 0 003.558.08c.63.014 1.24.034 1.83.06v-1.397c0-1.25-.074-2.235-.221-2.953-.148-.718-.417-1.25-.805-1.596-.389-.346-.945-.565-1.668-.659-.724-.092-1.662-.14-2.815-.14-.509 0-1.105.02-1.789.06-.683.04-1.36.094-2.03.16-.67.067-1.26.14-1.768.22v-2.355a27.98 27.98 0 013.075-.419 41.276 41.276 0 013.437-.14c1.287 0 2.372.08 3.257.24.884.16 1.608.42 2.17.778.564.36.992.845 1.287 1.457.295.612.496 1.356.603 2.235.107.877.162 1.902.162 3.072v12.89h-2.574l-.16-2.874h-.242c-.322.905-.804 1.59-1.447 2.055a5.249 5.249 0 01-2.192.918 14.25 14.25 0 01-2.512.22m22.152-2.594c1.071 0 1.93-.086 2.573-.26.643-.172 1.132-.519 1.467-1.037.335-.519.563-1.31.684-2.374.12-1.064.18-2.475.18-4.23 0-1.782-.06-3.199-.18-4.25-.12-1.051-.349-1.836-.684-2.355-.335-.519-.824-.864-1.467-1.037-.643-.173-1.502-.26-2.573-.26-1.233 0-2.205.2-2.915.6-.71.398-1.2 1.05-1.468 1.954a9.217 9.217 0 00-.402 2.235c-.053.825-.08 1.862-.08 3.113 0 1.17.033 2.175.1 3.012.067.839.167 1.51.303 2.016.294 1.037.797 1.775 1.507 2.214.71.44 1.695.659 2.955.659zm-7.76 10.096V19.654h2.573l.161 2.913h.201c.348-.904.81-1.59 1.387-2.055a4.671 4.671 0 012.031-.938 12.41 12.41 0 012.493-.24c1.34 0 2.445.16 3.316.48a4.018 4.018 0 012.051 1.635c.495.772.85 1.836 1.065 3.193.214 1.357.322 3.073.322 5.148 0 2.074-.1 3.797-.302 5.167-.2 1.371-.55 2.442-1.045 3.213a4.13 4.13 0 01-2.03 1.656c-.859.332-1.97.499-3.337.499-.966 0-1.83-.094-2.593-.28-.764-.186-1.408-.492-1.93-.918-.523-.424-.945-.984-1.267-1.675h-.2v10.375h-2.896zm21.389-7.822V22.128h-3.578v-2.474h3.578v-5.907h2.935v5.907h4.222v2.474h-4.222v17.877z"/><mask id="b" fill="#fff"><use xlink:href="#a"/></mask><path fill="#1F3061" d="M141.419 40.006h2.895V19.654h-2.895v20.352zm-.12-26.298h3.136v-3.352h-3.136v3.352zm14.956 26.617c-1.367 0-2.5-.127-3.398-.38-.897-.252-1.614-.644-2.15-1.177-.536-.531-.938-1.21-1.207-2.034-.268-.825-.442-1.81-.522-2.954-.08-1.143-.12-2.46-.12-3.95 0-1.57.053-2.94.16-4.11.107-1.171.308-2.169.603-2.993.295-.825.717-1.483 1.267-1.976.55-.492 1.252-.851 2.11-1.077.858-.226 1.916-.34 3.177-.34.804 0 1.668.047 2.593.14.925.094 1.681.22 2.272.38v2.394a17.76 17.76 0 00-2.031-.32c-.763-.08-1.481-.12-2.151-.12-1.099 0-1.99.114-2.673.34-.684.226-1.2.618-1.548 1.177-.35.559-.577 1.363-.684 2.414-.107 1.051-.16 2.414-.16 4.09 0 1.703.053 3.087.16 4.15.107 1.065.342 1.877.704 2.435.362.559.884.938 1.568 1.137.683.2 1.588.3 2.714.3.696 0 1.427-.04 2.19-.12.764-.08 1.454-.186 2.07-.32v2.395a17.08 17.08 0 01-2.31.379 25.61 25.61 0 01-2.634.14" mask="url(#b)"/></g></svg>