<svg xmlns="http://www.w3.org/2000/svg" width="24" height="25"><path fill="#1F3161" fill-rule="evenodd" d="M19.49 19.715h-3.229v-5.757c0-1.339-.467-2.252-1.636-2.252-.892 0-1.423.616-1.656 1.21-.085.213-.107.51-.107.808v5.99H9.634V12.64c0-1.295-.043-2.378-.085-3.313h2.804l.148 1.444h.064c.425-.68 1.466-1.678 3.208-1.678 2.124 0 3.717 1.423 3.717 4.482v6.14zM6.065 8.052c-1.02 0-1.678-.722-1.678-1.614 0-.914.68-1.615 1.72-1.615 1.042 0 1.679.701 1.7 1.615 0 .892-.658 1.614-1.742 1.614zM4.472 19.715h3.229V9.327H4.472v10.388zM21.58.5H2.42A2.423 2.423 0 000 2.928v19.428a2.423 2.423 0 002.42 2.428h19.16A2.423 2.423 0 0024 22.356V2.928A2.423 2.423 0 0021.58.5z"/></svg>