<svg xmlns="http://www.w3.org/2000/svg" width="169" height="54"><g fill="#FEFEFE" fill-rule="evenodd"><path d="M18.83 0l-7.893 3.939v-.017L0 9.458V54l10.937-5.565V36.437l7.894-3.971V19.21l-7.894 3.952v-5.327l7.894-4.036V0z"/><path fill-opacity=".75" d="M33.939 7.134L18.83 0v13.798l15.109 7.232z"/><path fill-opacity=".4" d="M29.653 24.028L18.83 19.21v13.256l10.823 4.838z"/><path d="M46.226 41.53V13.046h15.326v2.774H49.45v10.558h10.804v2.773H49.45V41.53zm19.094 0h3.016V20.416H65.32v21.116zm-.125-27.283h3.266v-3.478h-3.266v3.478zm8.668 27.283V20.415h2.68l.167 3.023h.21a5.388 5.388 0 011.151-1.78c.488-.497 1.145-.883 1.969-1.16.823-.276 1.863-.414 3.119-.414 1.396 0 2.52.16 3.371.477.851.317 1.5.807 1.947 1.469.447.662.747 1.505.9 2.526.154 1.021.231 2.25.231 3.684v13.29h-3.057V29.234c0-1.435-.049-2.58-.146-3.436-.099-.855-.308-1.497-.629-1.925-.32-.428-.789-.718-1.402-.87-.615-.151-1.424-.227-2.429-.227-1.229 0-2.185.186-2.869.558-.684.373-1.18.898-1.486 1.573-.308.677-.502 1.491-.586 2.443a37.489 37.489 0 00-.126 3.25v10.93h-3.015zm27.26-2.194a12.8 12.8 0 002.03-.145c.6-.096 1.131-.29 1.592-.58.46-.289.802-.696 1.025-1.22a8.092 8.092 0 00.608-1.968c.126-.703.188-1.524.188-2.463v-1.283h-6.113c-1.005 0-1.773.097-2.304.29-.53.193-.893.558-1.088 1.097-.196.538-.294 1.36-.294 2.464 0 1.02.112 1.807.336 2.36.223.551.649.93 1.277 1.138.628.207 1.542.31 2.743.31m-1.047 2.526c-1.424 0-2.604-.18-3.538-.539a3.83 3.83 0 01-2.094-1.863c-.461-.883-.691-2.125-.691-3.726 0-1.6.174-2.857.523-3.767.349-.911.956-1.553 1.822-1.926.865-.373 2.051-.559 3.56-.559.334 0 .767.008 1.297.02a670.26 670.26 0 003.706.083 90.7 90.7 0 011.905.063v-1.45c0-1.296-.076-2.317-.23-3.063-.154-.745-.433-1.297-.837-1.656-.405-.358-.984-.586-1.738-.683-.754-.096-1.732-.145-2.931-.145-.53 0-1.152.02-1.864.062a53.51 53.51 0 00-2.114.166c-.699.07-1.313.145-1.843.228v-2.443a29.122 29.122 0 013.204-.435 42.932 42.932 0 013.58-.144c1.34 0 2.47.082 3.392.247.92.166 1.675.435 2.26.808a3.632 3.632 0 011.34 1.51c.307.636.517 1.409.629 2.32.111.91.167 1.973.167 3.187V41.53h-2.68l-.166-2.98h-.253c-.334.938-.837 1.65-1.507 2.131-.67.484-1.43.802-2.282.953-.852.151-1.724.228-2.617.228m23.073-2.692c1.115 0 2.009-.089 2.679-.269.67-.179 1.179-.538 1.529-1.076.348-.538.586-1.359.712-2.463.125-1.104.188-2.568.188-4.389 0-1.85-.063-3.318-.188-4.41-.126-1.09-.364-1.904-.712-2.442-.35-.538-.86-.897-1.529-1.076-.67-.18-1.564-.27-2.68-.27-1.284 0-2.297.207-3.036.622-.74.413-1.25 1.09-1.529 2.028a9.571 9.571 0 00-.418 2.319 51.638 51.638 0 00-.084 3.229 39.7 39.7 0 00.105 3.126c.07.87.174 1.566.314 2.09.307 1.077.83 1.843 1.57 2.298.74.456 1.766.683 3.079.683zm-8.083 10.475v-29.23h2.68l.167 3.023h.21c.362-.938.844-1.65 1.445-2.132a4.881 4.881 0 012.115-.974c.81-.165 1.674-.248 2.596-.248 1.396 0 2.547.165 3.454.497a4.19 4.19 0 012.137 1.698c.515.8.885 1.904 1.109 3.312.223 1.407.335 3.188.335 5.34 0 2.153-.105 3.94-.315 5.362-.209 1.422-.572 2.533-1.088 3.333a4.296 4.296 0 01-2.115 1.718c-.894.345-2.051.518-3.475.518-1.006 0-1.906-.098-2.701-.29-.796-.193-1.466-.51-2.01-.953-.545-.44-.984-1.02-1.319-1.738h-.21v10.764h-3.015zm22.278-8.115V22.983h-3.727v-2.568h3.727v-6.127h3.057v6.127h4.397v2.568h-4.397V41.53zm10.803 0h3.016V20.416h-3.016v21.116zm-.126-27.283h3.267v-3.478h-3.267v3.478zM163.6 41.862c-1.423 0-2.603-.132-3.538-.394-.935-.262-1.681-.668-2.24-1.221-.559-.552-.977-1.256-1.257-2.111-.278-.856-.46-1.877-.544-3.064a59.264 59.264 0 01-.125-4.099c0-1.628.055-3.05.167-4.264.112-1.214.32-2.25.628-3.105.308-.856.747-1.539 1.32-2.05.572-.51 1.304-.883 2.198-1.118.893-.234 1.995-.352 3.308-.352.838 0 1.738.049 2.701.145.963.098 1.751.228 2.366.393v2.485a18.345 18.345 0 00-2.115-.331 21.69 21.69 0 00-2.24-.125c-1.145 0-2.073.118-2.784.352-.712.235-1.25.642-1.612 1.221-.364.58-.601 1.415-.713 2.505-.112 1.09-.167 2.505-.167 4.244 0 1.766.055 3.202.167 4.305.112 1.105.357 1.947.733 2.526.377.58.921.973 1.633 1.18.712.207 1.654.31 2.827.31.726 0 1.486-.04 2.282-.124a20.036 20.036 0 002.156-.331v2.485c-.67.165-1.473.296-2.408.393-.935.096-1.85.145-2.743.145"/></g></svg>