<svg xmlns="http://www.w3.org/2000/svg" width="24" height="21"><path fill="#1F3161" fill-rule="evenodd" d="M7.548 20.7c9.057 0 14.01-7.617 14.01-14.222 0-.216-.005-.432-.014-.646A10.102 10.102 0 0024 3.244a9.717 9.717 0 01-2.828.787 5.003 5.003 0 002.166-2.765 9.778 9.778 0 01-3.127 1.213A4.885 4.885 0 0016.617.9c-2.72 0-4.925 2.239-4.925 4.998 0 .392.043.774.128 1.14-4.092-.21-7.721-2.198-10.15-5.223a5.039 5.039 0 00-.666 2.513c0 1.734.869 3.265 2.19 4.16a4.832 4.832 0 01-2.23-.625v.064c0 2.42 1.697 4.442 3.95 4.9a4.87 4.87 0 01-2.224.086c.627 1.986 2.445 3.43 4.6 3.471A9.788 9.788 0 010 18.454 13.79 13.79 0 007.548 20.7"/></svg>