<svg xmlns="http://www.w3.org/2000/svg" width="169" height="54" viewBox="0 0 169 54">
  <g fill="#FEFEFE" fill-rule="evenodd">
    <polygon points="18.83 0 10.937 3.939 10.937 3.922 0 9.458 0 54 10.937 48.435 10.937 36.437 18.831 32.466 18.831 19.21 10.937 23.162 10.937 17.835 18.831 13.799 18.831 0"/>
    <g transform="translate(18.83)">
      <polygon fill-opacity=".75" points="15.109 7.134 0 0 0 13.798 15.109 21.03"/>
      <polygon fill-opacity=".4" points="10.823 24.028 0 19.21 0 32.466 10.823 37.304"/>
    </g>
    <polygon points="46.226 41.53 46.226 13.046 61.552 13.046 61.552 15.82 49.45 15.82 49.45 26.378 60.254 26.378 60.254 29.151 49.45 29.151 49.45 41.53"/>
    <path d="M65.3201098,41.5306166 L68.3355308,41.5306166 L68.3355308,20.4153932 L65.3201098,20.4153932 L65.3201098,41.5306166 Z M65.1947306,14.2468249 L68.46091,14.2468249 L68.46091,10.7690295 L65.1947306,10.7690295 L65.1947306,14.2468249 Z"/>
    <g transform="translate(73.863 10.769)">
      <path d="M0 30.7614307L0 9.6462074 2.67984746 9.6462074 2.84737085 12.6687694 3.0570385 12.6687694C3.33571735 11.9791482 3.71975682 11.3853655 4.20810331 10.8884632 4.6964498 10.3915609 5.35284649 10.0056022 6.17676656 9.72954532 6.99963303 9.45348847 8.04006919 9.31546005 9.29596783 9.31546005 10.6919961 9.31546005 11.8156671 9.47432295 12.666981 9.79152789 13.5182948 10.1087328 14.1678431 10.5988639 14.6140453 11.2608795 15.0607743 11.9234159 15.3605253 12.7661706 15.5143518 13.7870601 15.6676515 14.8084704 15.7450916 16.036142 15.7450916 17.4711168L15.7450916 30.7614307 12.6880531 30.7614307 12.6880531 18.4649214C12.6880531 17.0299467 12.6390604 15.8845712 12.5416018 15.028795 12.4430897 14.1735396 12.2339488 13.5318377 11.9131257 13.1036891 11.5923026 12.6760615 11.1239746 12.3859414 10.5107758 12.2338497 9.89599658 12.0827997 9.08682699 12.0067538 8.08221344 12.0067538 6.85318177 12.0067538 5.89703411 12.1927016 5.21324366 12.5651179 4.52945321 12.938055 4.03373148 13.462563 3.72660526 14.138121 3.41947904 14.8152416 3.22456189 15.6293488 3.14080019 16.5809637 3.0570385 17.5336202 3.01542105 18.6170131 3.01542105 19.8311423L3.01542105 30.7614307 0 30.7614307zM27.2600068 28.5670914C28.0138621 28.5670914 28.6897505 28.5191721 29.2908329 28.4222917 29.8908616 28.3259323 30.4213524 28.1321716 30.8817783 27.8425724 31.342731 27.5529731 31.6840994 27.145659 31.9074639 26.621151 32.1861428 26.0143469 32.3900156 25.3585816 32.5153947 24.6543763 32.6407739 23.9506917 32.7034635 23.1298133 32.7034635 22.19122L32.7034635 20.9078161 26.5899133 20.9078161C25.5847729 20.9078161 24.816694 21.0046964 24.2862032 21.1979362 23.7562393 21.391176 23.3927451 21.7563003 23.197828 22.2948715 23.002384 22.8329219 22.9043987 23.6543213 22.9043987 24.7585486 22.9043987 25.7794381 23.0160809 26.5659397 23.2399722 27.1180534 23.46281 27.6701671 23.8889937 28.0498754 24.516943 28.2566576 25.1448923 28.4639607 26.0594225 28.5670914 27.2600068 28.5670914M26.213249 31.092751C24.7893002 31.092751 23.6092612 30.9130537 22.6747125 30.5541798 21.7391102 30.1958267 21.041096 29.5749593 20.5806701 28.6910565 20.1197174 27.8081955 19.8900312 26.5659397 19.8900312 24.9653308 19.8900312 23.364722 20.0638762 22.108403 20.4131467 21.1979362 20.7618904 20.2869486 21.3687676 19.6447258 22.2348319 19.2723095 23.0998426 18.8993724 24.2862032 18.7134246 25.7944406 18.7134246 26.1294873 18.7134246 26.5619927 18.7207167 27.0924834 18.7337383 27.6219206 18.7478015 28.2082525 18.7618648 28.8514791 18.7754072 29.4925985 18.7899913 30.1416199 18.8035338 30.7980166 18.8165553 31.4533597 18.8311394 32.089211 18.8519739 32.7034635 18.8785379L32.7034635 17.4294999C32.7034635 16.1325536 32.6265502 15.1116641 32.4732505 14.3663106 32.3188972 13.6209572 32.0402183 13.0693643 31.6356335 12.7099696 31.2305219 12.3521374 30.6520921 12.1239999 29.8977101 12.0271195 29.1438548 11.9307601 28.1661082 11.8817991 26.9665775 11.8817991 26.4360868 11.8817991 25.8149859 11.9026335 25.1032749 11.9443025 24.3915639 11.9859715 23.6861745 12.0411828 22.9886872 12.1099366 22.2901462 12.1792112 21.6758938 12.2547362 21.1464567 12.3375533L21.1464567 9.89471065C22.1231496 9.70199172 23.1904528 9.55719209 24.3499464 9.46031176 25.5078597 9.36343144 26.7005419 9.31551214 27.9295736 9.31551214 29.2702875 9.31551214 30.3997534 9.39832919 31.3216589 9.56344243 32.2425107 9.72907654 32.9968928 9.99836218 33.5821711 10.3707785 34.1690297 10.7437157 34.615232 11.24791 34.922885 11.8817991 35.2294844 12.5172507 35.4386253 13.289689 35.5508343 14.2006765 35.6619898 15.1116641 35.7183577 16.1742225 35.7183577 17.3883518L35.7183577 30.7614828 33.0379834 30.7614828 32.8715137 27.7800689 32.619175 27.7800689C32.2851818 28.7191831 31.781558 29.4301596 31.1119912 29.9124778 30.4424245 30.3958377 29.6817208 30.7135635 28.8298801 30.8646135 27.9780395 31.0161843 27.1061803 31.092751 26.213249 31.092751M49.2856452 28.401301C50.4008874 28.401301 51.2948723 28.3122336 51.9649659 28.1320154 52.6345326 27.9533597 53.1439513 27.5939649 53.4937485 27.0559145 53.8424922 26.5178641 54.0795536 25.6969857 54.2059863 24.5927583 54.3313655 23.4885309 54.3940551 22.0254296 54.3940551 20.2039753 54.3940551 18.3549153 54.3313655 16.8855637 54.2059863 15.7943579 54.0795536 14.7047147 53.8424922 13.8900865 53.4937485 13.3520361 53.1439513 12.8139857 52.6345326 12.4551118 51.9649659 12.2759353 51.2948723 12.0962379 50.4008874 12.0066497 49.2856452 12.0066497 48.0007724 12.0066497 46.9882568 12.2134319 46.249152 12.6275171 45.5095205 13.0410815 44.9990482 13.7182021 44.7203694 14.6562745 44.4970049 15.3464166 44.3579288 16.1193758 44.3015609 16.9746311 44.2462466 17.8304073 44.218326 18.9065082 44.218326 20.2039753 44.218326 21.4186254 44.253095 22.4603494 44.3231598 23.329668 44.3921711 24.1995075 44.4970049 24.8964208 44.6371345 25.420408 44.9437339 26.4970296 45.4673762 27.2626967 46.2070078 27.7179301 46.9471662 28.1736843 47.9728518 28.401301 49.2856452 28.401301L49.2856452 28.401301zM41.2034318 38.876356L41.2034318 9.64662409 43.8827524 9.64662409 44.0502758 12.6686652 44.2604703 12.6686652C44.622384 11.7311137 45.1044089 11.0196162 45.7049644 10.5367772 46.3049932 10.0539382 47.0098557 9.72944114 47.8195521 9.56328618 48.6292485 9.39817293 49.4942593 9.31535588 50.4156379 9.31535588 51.8116662 9.31535588 52.962731 9.48046912 53.8704128 9.8122582 54.7770409 10.1435264 55.4887519 10.7097034 56.0065994 11.5097474 56.5218128 12.3103122 56.8921554 13.4140187 57.11552 14.8219086 57.3388845 16.2292777 57.4510935 18.0095839 57.4510935 20.1628272 57.4510935 22.3150289 57.3462597 24.1026272 57.1360653 25.5240595 56.9274513 26.9460127 56.5639571 28.0570112 56.04769 28.8570552 55.5308962 29.6576201 54.8265604 30.2305682 53.9331023 30.5753789 53.0391174 30.9201895 51.881731 31.0925948 50.4577822 31.0925948 49.452115 31.0925948 48.5518085 30.9951936 47.7568626 30.8024747 46.9613899 30.6097557 46.2912963 30.2925508 45.7471087 29.850339 45.2018674 29.4096898 44.7625136 28.8294495 44.4279937 28.1117017L44.218326 28.1117017 44.218326 38.876356 41.2034318 38.876356z"/>
      <polygon points="63.481 30.761 63.481 12.214 59.754 12.214 59.754 9.646 63.481 9.646 63.481 3.519 66.538 3.519 66.538 9.646 70.935 9.646 70.935 12.214 66.538 12.214 66.538 30.761"/>
      <path d="M74.2843497 30.761587L77.3002975 30.761587 77.3002975 9.64636366 74.2843497 9.64636366 74.2843497 30.761587zM74.1584437 3.47779536L77.4251499 3.47779536 77.4251499 0 74.1584437 0 74.1584437 3.47779536zM89.736328 31.0925948C88.3134328 31.0925948 87.1333938 30.9613376 86.1977915 30.699344 85.2627159 30.4373504 84.5167627 30.0305572 83.9578246 29.4779227 83.3994133 28.9263299 82.9806048 28.2221245 82.7013992 27.3668691 82.4227203 26.5110929 82.2415001 25.4896826 82.1572116 24.3026382 82.0739767 23.1166355 82.0318324 21.7498937 82.0318324 20.2039753 82.0318324 18.5757608 82.0871467 17.1543285 82.1993558 15.9396784 82.3105113 14.7255491 82.5196521 13.6900756 82.8273051 12.8348202 83.1349581 11.979044 83.5743119 11.2961939 84.1464201 10.7847075 84.7185283 10.2747836 85.4507846 9.90184646 86.3452963 9.66745857 87.2382276 9.43307068 88.3402998 9.31535588 89.6530931 9.31535588 90.4907101 9.31535588 91.3910166 9.36379604 92.3540127 9.46015551 93.3170088 9.55755669 94.1051063 9.68777219 94.7204123 9.85340629L94.7204123 12.3379179C94.1051063 12.1998895 93.4012973 12.0889459 92.604771 12.0066497 91.8098251 11.9238326 91.0628183 11.8821637 90.3648041 11.8821637 89.220061 11.8821637 88.2918339 11.9998785 87.5806497 12.2337455 86.8689386 12.4691751 86.3305459 12.8759683 85.9686321 13.4551668 85.605138 14.0348862 85.3675498 14.8703488 85.2563943 15.959992 85.1441852 17.050677 85.0888709 18.4648172 85.0888709 20.2039753 85.0888709 21.9702183 85.1441852 23.4057139 85.2563943 24.5094204 85.3675498 25.6136477 85.6125132 26.4558815 85.9891774 27.0350801 86.3658417 27.6147994 86.9100293 28.0080502 87.6217403 28.2153533 88.3339781 28.4221355 89.2764289 28.525787 90.4485658 28.525787 91.1745005 28.525787 91.9352042 28.4841181 92.7306769 28.401301 93.5266765 28.3190048 94.2452359 28.2085821 94.8868821 28.0700328L94.8868821 30.5545444C94.2173153 30.7201785 93.4144674 30.8509148 92.4793919 30.9477952 91.5443163 31.0441546 90.6292593 31.0925948 89.736328 31.0925948"/>
    </g>
  </g>
</svg>
