<svg xmlns="http://www.w3.org/2000/svg" width="1440" height="660"><defs><linearGradient id="a" x1="27.65%" x2="26.555%" y1="44.333%" y2="63.165%"><stop offset="0%" stop-color="#1A2B52"/><stop offset="100%" stop-color="#2F4B9F"/></linearGradient></defs><g fill="none" fill-rule="evenodd"><path fill="url(#a)" transform="matrix(-1 0 0 1 1440 0)" d="M0 81.562l372.184 182.889L1440 0v660H0z"/><g fill-rule="nonzero"><path fill="#1A2B52" d="M908.037 111a4.54 4.54 0 00-4.54 4.545v144.879H841.54c-2.5 0-4.54 2.041-4.54 4.544V385.67a4.544 4.544 0 004.54 4.544h41.637l9.08 40.263-.018.018a4.564 4.564 0 003.28 3.355 4.522 4.522 0 004.487-1.313l38.818-42.322h75.863a4.544 4.544 0 004.54-4.545v-68.702h14.169l63.556 69.947h-.018a4.591 4.591 0 004.504 1.314 4.509 4.509 0 003.263-3.373l15.712-67.888h70.047a4.544 4.544 0 004.54-4.545V115.55a4.544 4.544 0 00-4.54-4.545L908.037 111zm102.108 270.125h-73.54c-1.294.018-2.5.55-3.369 1.509l-33.906 37.352-8.175-35.346a4.532 4.532 0 00-4.54-3.55h-40.857V269.514h57.74v42.855a4.544 4.544 0 004.54 4.545h102.107v64.211zm175.774-73.246h-69.178c-2.163-.053-4.079 1.42-4.54 3.533l-14.488 62.952-59.016-65.03a4.49 4.49 0 00-3.351-1.508H912.578V120.09h273.34v187.788z"/><path fill="#1A2B52" d="M994.5 198c7.456 0 13.5 6.044 13.5 13.5s-6.044 13.5-13.5 13.5-13.5-6.044-13.5-13.5 6.044-13.5 13.5-13.5zm55 0c7.456 0 13.5 6.044 13.5 13.5s-6.044 13.5-13.5 13.5-13.5-6.044-13.5-13.5 6.044-13.5 13.5-13.5zm55 0c7.456 0 13.5 6.044 13.5 13.5s-6.044 13.5-13.5 13.5-13.5-6.044-13.5-13.5 6.044-13.5 13.5-13.5z" opacity=".3"/><path fill="#FFF" d="M1195 202.144v110.28a4.544 4.544 0 01-4.54 4.544h-70.047l-15.712 67.888a4.509 4.509 0 01-3.263 3.373 4.591 4.591 0 01-4.504-1.314h.018l-63.556-69.947h-14.169v68.702a4.544 4.544 0 01-4.54 4.545h-75.863l-38.818 42.322a4.522 4.522 0 01-4.486 1.313 4.564 4.564 0 01-3.28-3.355l.017-.018-9.08-40.263H841.54a4.544 4.544 0 01-4.54-4.545v-120.7a4.551 4.551 0 014.54-4.545h61.958l-.001-37.756 9.081 2.309v82.849h122.768c1.276 0 2.5.55 3.351 1.509l59.016 65.03 14.488-62.953c.461-2.113 2.377-3.586 4.54-3.533h69.178l-.001-101.286 9.082-4.45zm-291.501 67.37h-57.741V381.09h41.073a4.532 4.532 0 014.324 3.55l8.175 35.346 33.906-37.352a4.593 4.593 0 013.37-1.509h73.54v-64.211H908.037a4.544 4.544 0 01-4.54-4.545v-42.855z"/><path fill="#FFF" d="M895 322a8 8 0 110 16 8 8 0 010-16zm32.889 0a8 8 0 110 16 8 8 0 010-16zm32.889 0a8 8 0 110 16 8 8 0 010-16z" opacity=".25"/></g></g></svg>