<svg xmlns="http://www.w3.org/2000/svg" width="1440" height="660" viewBox="0 0 1440 660">
  <defs>
    <linearGradient id="talktous-a" x1="27.65%" x2="26.555%" y1="44.333%" y2="63.165%">
      <stop offset="0%" stop-color="#1A2B52"/>
      <stop offset="100%" stop-color="#2F4B9F"/>
    </linearGradient>
  </defs>
  <g fill="none" fill-rule="evenodd">
    <polygon fill="url(#talktous-a)" points="0 81.562 372.184 264.451 1440 0 1440 660 0 660" transform="matrix(-1 0 0 1 1440 0)"/>
    <g fill-rule="nonzero" transform="translate(837 111)">
      <path fill="#1A2B52" d="M71.0372883,0 C68.5369101,0 66.4975842,2.02377935 66.4975842,4.54465282 L66.4975842,149.42364 L4.539704,149.42364 C2.03932583,149.42364 0,151.465189 0,153.968293 L0,274.669727 C0,275.876878 0.478802581,277.030811 1.32999708,277.882933 C2.18119158,278.735055 3.33386783,279.21438 4.539704,279.21438 L46.1774152,279.21438 L55.2568232,319.477277 L55.2390865,319.495033 C55.6292196,321.12829 56.8882702,322.424198 58.519749,322.850259 C60.1334776,323.276321 61.8713217,322.779249 63.0062477,321.536582 L101.824349,279.214503 L177.687342,279.214503 C178.893178,279.214503 180.045855,278.735178 180.897049,277.883056 C181.748244,277.030933 182.227046,275.877001 182.227046,274.66985 L182.227046,205.968333 L196.395916,205.968333 L259.951773,275.915085 L259.93404,275.915085 C261.086717,277.140005 262.806811,277.654823 264.438289,277.228762 C266.069768,276.802701 267.32881,275.506748 267.701202,273.855766 L283.412663,205.967742 L353.460296,205.967742 C354.666132,205.967742 355.818808,205.488418 356.670003,204.636295 C357.521197,203.784173 358,202.63024 358,201.42309 L358,4.54872937 C358,3.34153325 357.521197,2.18764589 356.670003,1.33552349 C355.818808,0.483401087 354.666132,0.00407655358 353.460296,0.00407655358 L71.0372883,0 Z M173.145264,270.125074 L99.6056456,270.125074 C98.3111036,270.142826 97.1052674,270.675386 96.2363226,271.634035 L62.3301814,308.985628 L54.1550824,273.6405 C53.6762798,271.510194 51.7788197,270.036726 49.6153784,270.08999 L8.75804236,270.08999 L8.75804236,158.514218 L66.4985376,158.514218 L66.4985376,201.368931 C66.4985376,202.576082 66.9773402,203.730014 67.8285347,204.582137 C68.6797292,205.434259 69.8324054,205.913584 71.0382416,205.913584 L173.145264,205.913584 L173.145264,270.125074 Z M348.918563,196.878905 L279.7411,196.878905 C277.577659,196.825646 275.662449,198.299109 275.201396,200.411645 L260.713385,263.364176 L201.697233,198.334739 C200.846039,197.37609 199.622452,196.825778 198.34566,196.825778 L75.578445,196.825778 L75.578445,9.09071448 L348.918563,9.09071448 L348.918563,196.878905 Z"/>
      <path fill="#1A2B52" d="M157.5,87 C164.955844,87 171,93.0441559 171,100.5 C171,107.955844 164.955844,114 157.5,114 C150.044156,114 144,107.955844 144,100.5 C144,93.0441559 150.044156,87 157.5,87 Z M212.5,87 C219.955844,87 226,93.0441559 226,100.5 C226,107.955844 219.955844,114 212.5,114 C205.044156,114 199,107.955844 199,100.5 C199,93.0441559 205.044156,87 212.5,87 Z M267.5,87 C274.955844,87 281,93.0441559 281,100.5 C281,107.955844 274.955844,114 267.5,114 C260.044156,114 254,107.955844 254,100.5 C254,93.0441559 260.044156,87 267.5,87 Z" opacity=".3"/>
      <path fill="#FFF" d="M358,91.1436996 L358,201.42309 C358,202.63024 357.521197,203.784173 356.670003,204.636295 C355.818808,205.488418 354.666132,205.967742 353.460296,205.967742 L353.460296,205.967742 L283.412663,205.967742 L267.701202,273.855766 C267.32881,275.506748 266.069768,276.802701 264.438289,277.228762 C262.806811,277.654823 261.086717,277.140005 259.93404,275.915085 L259.93404,275.915085 L259.951773,275.915085 L196.395916,205.968333 L182.227046,205.968333 L182.227046,274.66985 C182.227046,275.877001 181.748244,277.030933 180.897049,277.883056 C180.045855,278.735178 178.893178,279.214503 177.687342,279.214503 L177.687342,279.214503 L101.824349,279.214503 L63.0062477,321.536582 C61.8713217,322.779249 60.1334776,323.276321 58.519749,322.850259 C56.8882702,322.424198 55.6292196,321.12829 55.2390865,319.495033 L55.2390865,319.495033 L55.2568232,319.477277 L46.1774152,279.21438 L4.539704,279.21438 C3.33386783,279.21438 2.18119158,278.735055 1.32999708,277.882933 C0.478802581,277.030811 1.09139364e-10,275.876878 1.09139364e-10,274.669727 L1.09139364e-10,274.669727 L1.09139364e-10,153.968293 C1.09139364e-10,151.465189 2.03932583,149.42364 4.539704,149.42364 L4.539704,149.42364 L66.4975842,149.42364 L66.497,111.6677 L75.578,113.9767 L75.578445,196.825778 L198.34566,196.825778 C199.622452,196.825778 200.846039,197.37609 201.697233,198.334739 L201.697233,198.334739 L260.713385,263.364176 L275.201396,200.411645 C275.662449,198.299109 277.577659,196.825646 279.7411,196.878905 L279.7411,196.878905 L348.918563,196.878905 L348.918,95.5926996 L358,91.1436996 Z M66.4985376,158.514218 L8.75804236,158.514218 L8.75804236,270.08999 L49.8307932,270.08972 C51.9037408,270.135687 53.6922399,271.581204 54.1550824,273.6405 L54.1550824,273.6405 L62.3301814,308.985628 L96.2363226,271.634035 C97.1052674,270.675386 98.3111036,270.142826 99.6056456,270.125074 L99.6056456,270.125074 L173.145264,270.125074 L173.145264,205.913584 L71.0382416,205.913584 C69.8324054,205.913584 68.6797292,205.434259 67.8285347,204.582137 C66.9773402,203.730014 66.4985376,202.576082 66.4985376,201.368931 L66.4985376,201.368931 L66.4985376,158.514218 Z"/>
      <path fill="#FFF" d="M58,211 C62.418278,211 66,214.581722 66,219 C66,223.418278 62.418278,227 58,227 C53.581722,227 50,223.418278 50,219 C50,214.581722 53.581722,211 58,211 Z M90.8888889,211 C95.3071669,211 98.8888889,214.581722 98.8888889,219 C98.8888889,223.418278 95.3071669,227 90.8888889,227 C86.4706109,227 82.8888889,223.418278 82.8888889,219 C82.8888889,214.581722 86.4706109,211 90.8888889,211 Z M123.777778,211 C128.196056,211 131.777778,214.581722 131.777778,219 C131.777778,223.418278 128.196056,227 123.777778,227 C119.3595,227 115.777778,223.418278 115.777778,219 C115.777778,214.581722 119.3595,211 123.777778,211 Z" opacity=".25"/>
    </g>
  </g>
</svg>
