<svg xmlns="http://www.w3.org/2000/svg" viewBox="0 0 232.58 175.57"><defs><style>.cls-1{fill:#1f3161;}.cls-2{fill:#e57c2b;}.cls-3{fill:#2f4ba0;}</style></defs><g id="Layer_2" data-name="Layer 2"><g id="Layer_1-2" data-name="Layer 1"><path class="cls-1" d="M0,160V105.3H29.09v5.33h-23V130.9H26.63v5.32H6.12V160Z"/><path class="cls-1" d="M36,107.61v-6.68h6.2v6.68ZM36.25,160V119.45H42V160Z"/><path class="cls-1" d="M52.46,160V119.45h5.09l.32,5.8h.39a10.45,10.45,0,0,1,2.19-3.42,9.27,9.27,0,0,1,3.74-2.22,18.65,18.65,0,0,1,5.92-.8,18.5,18.5,0,0,1,6.4.92,7.43,7.43,0,0,1,3.69,2.82,11.73,11.73,0,0,1,1.71,4.85,49.15,49.15,0,0,1,.44,7.07V160h-5.8V136.38a63.15,63.15,0,0,0-.28-6.6,7.81,7.81,0,0,0-1.19-3.69,4.56,4.56,0,0,0-2.67-1.67A19.66,19.66,0,0,0,67.8,124a11.46,11.46,0,0,0-5.44,1.07,6.39,6.39,0,0,0-2.82,3,14.42,14.42,0,0,0-1.12,4.69c-.16,1.83-.23,3.91-.23,6.24v21Z"/><path class="cls-1" d="M102.22,160.62a18.76,18.76,0,0,1-6.72-1,7.3,7.3,0,0,1-4-3.58,15.78,15.78,0,0,1-1.31-7.15,21.1,21.1,0,0,1,1-7.23,6.29,6.29,0,0,1,3.46-3.7,17.21,17.21,0,0,1,6.76-1.07c.63,0,1.45,0,2.46,0l3.34.08,3.69.08c1.25,0,2.46.06,3.62.11v-2.78a31,31,0,0,0-.44-5.88,5.64,5.64,0,0,0-1.59-3.18,6,6,0,0,0-3.3-1.31,43.91,43.91,0,0,0-5.56-.28q-1.52,0-3.54.12c-1.35.08-2.69.19-4,.32s-2.49.28-3.5.44v-4.69a55.81,55.81,0,0,1,6.08-.84c2.2-.18,4.47-.28,6.8-.28a36.57,36.57,0,0,1,6.44.48,11.73,11.73,0,0,1,4.29,1.55,6.94,6.94,0,0,1,2.54,2.9,14.33,14.33,0,0,1,1.2,4.45,52.15,52.15,0,0,1,.31,6.12V160h-5.08l-.32-5.73h-.48a8.27,8.27,0,0,1-2.86,4.1,10.34,10.34,0,0,1-4.33,1.83A28.1,28.1,0,0,1,102.22,160.62Zm2-4.84a24.73,24.73,0,0,0,3.85-.28,7.92,7.92,0,0,0,3-1.12,4.89,4.89,0,0,0,2-2.34,15.39,15.39,0,0,0,1.15-3.78,27.27,27.27,0,0,0,.36-4.73v-2.46h-11.6a13.32,13.32,0,0,0-4.38.56,3.33,3.33,0,0,0-2.06,2.1,15,15,0,0,0-.56,4.73,12.52,12.52,0,0,0,.64,4.53A3.72,3.72,0,0,0,99,155.18,17.28,17.28,0,0,0,104.21,155.78Z"/><path class="cls-1" d="M130.68,175.57V119.45h5.08l.32,5.8h.4a9.53,9.53,0,0,1,2.74-4.09,9.21,9.21,0,0,1,4-1.87,24.08,24.08,0,0,1,4.92-.48,19.06,19.06,0,0,1,6.56,1,8,8,0,0,1,4.06,3.26,16.74,16.74,0,0,1,2.1,6.36,68.54,68.54,0,0,1,.64,10.25,73,73,0,0,1-.6,10.29,16.36,16.36,0,0,1-2.07,6.4,8.12,8.12,0,0,1-4,3.3,18.46,18.46,0,0,1-6.6,1,21.55,21.55,0,0,1-5.12-.55,9.45,9.45,0,0,1-3.82-1.83,9.21,9.21,0,0,1-2.5-3.34h-.4v20.67ZM146,155.46a19.8,19.8,0,0,0,5.08-.52,4.77,4.77,0,0,0,2.91-2.07,11.38,11.38,0,0,0,1.35-4.73,78.43,78.43,0,0,0,.35-8.42,78.7,78.7,0,0,0-.35-8.47,11.36,11.36,0,0,0-1.35-4.69,4.8,4.8,0,0,0-2.91-2.06A19.8,19.8,0,0,0,146,124a11.84,11.84,0,0,0-5.77,1.19,6.31,6.31,0,0,0-2.9,3.9,18.39,18.39,0,0,0-.79,4.45q-.17,2.46-.16,6.2c0,2.33.06,4.33.2,6a23.91,23.91,0,0,0,.59,4,7.3,7.3,0,0,0,3,4.42A11.12,11.12,0,0,0,146,155.46Z"/><path class="cls-1" d="M173,160V124.38h-7.07v-4.93H173V107.68h5.81v11.77h8.34v4.93h-8.34V160Z"/><path class="cls-1" d="M193.23,107.61v-6.68h6.2v6.68Zm.24,52.38V119.45h5.73V160Z"/><path class="cls-1" d="M222.8,160.62a25.2,25.2,0,0,1-6.71-.75,9.54,9.54,0,0,1-4.26-2.35,9.92,9.92,0,0,1-2.38-4.05,25,25,0,0,1-1-5.88q-.24-3.42-.24-7.87c0-3.13.1-5.86.32-8.19a24.21,24.21,0,0,1,1.19-6,9.55,9.55,0,0,1,2.5-3.94,9.92,9.92,0,0,1,4.18-2.14,24.78,24.78,0,0,1,6.28-.68c1.59,0,3.29.1,5.12.28a28.53,28.53,0,0,1,4.49.76v4.77a33.47,33.47,0,0,0-4-.64,40.51,40.51,0,0,0-4.25-.24,17.08,17.08,0,0,0-5.29.68,5.52,5.52,0,0,0-3.06,2.34,11.41,11.41,0,0,0-1.35,4.81q-.31,3.13-.32,8.15c0,3.39.11,6.15.32,8.26a11,11,0,0,0,1.39,4.85,5.34,5.34,0,0,0,3.1,2.27,19.49,19.49,0,0,0,5.37.6,41.24,41.24,0,0,0,4.33-.24,37.15,37.15,0,0,0,4.09-.64v4.77a33.6,33.6,0,0,1-4.57.76A51.68,51.68,0,0,1,222.8,160.62Z"/><polygon class="cls-2" points="117.54 22.79 117.54 0 104.65 6.5 104.65 6.48 86.79 15.62 86.79 89.18 104.65 79.99 104.65 60.17 117.54 53.62 117.54 31.72 104.65 38.25 104.65 29.45 117.54 22.79"/><polygon class="cls-1" points="142.21 11.78 117.54 0 117.54 22.79 142.21 34.73 142.21 11.78"/><polygon class="cls-3" points="135.21 39.68 117.54 31.72 117.54 53.62 135.21 61.6 135.21 39.68"/></g></g></svg>